<svg width="60.000000" height="60.000000" viewBox="0 0 60 60" fill="none" xmlns="http://www.w3.org/2000/svg" xmlns:xlink="http://www.w3.org/1999/xlink">
	<desc>
			Created with Pixso.
	</desc>
	<defs>
		<linearGradient x1="30.000000" y1="0.000000" x2="30.000000" y2="60.000000" id="paint_linear_25_231_0" gradientUnits="userSpaceOnUse">
			<stop stop-color="#FFFFFF" stop-opacity="0.000000"/>
			<stop offset="0.999132" stop-color="#0A59F7" stop-opacity="0.329412"/>
		</linearGradient>
		<linearGradient x1="15.000010" y1="44.562344" x2="55.500008" y2="11.999989" id="paint_linear_25_249_0" gradientUnits="userSpaceOnUse">
			<stop stop-color="#115EF7"/>
			<stop offset="1.000000" stop-color="#C5D8FD"/>
		</linearGradient>
	</defs>
	<circle cx="30.000000" cy="30.000000" r="30.000000" fill="url(#paint_linear_25_231_0)" fill-opacity="1.000000"/>
	<path d="M30.8734 15L47.5938 15.0198C48.6422 15.021 49.4915 15.8816 49.4915 16.9428L49.4915 38.2764C49.4914 39.3385 48.6408 40.1994 47.5915 40.1997L47.1973 40.1984C46.9091 36.8745 43.8916 33.9854 40.5698 33.9854C37.0312 33.9854 34.191 36.6627 33.9381 40.2006L27.4807 40.2003C27.1935 36.8757 24.1754 33.9854 20.853 33.9854C17.3324 33.9854 14.5032 36.6355 14.2254 40.1466C12.7635 39.879 11.6335 38.64 11.511 37.1127L11.5 36.8367L11.5 30.7952C11.5 30.192 11.6601 29.6019 11.9611 29.0854L12.1232 28.8337L18.204 21.4763C18.6006 20.9168 19.2123 20.5597 19.8808 20.4872L24.9787 20.4761C25.5454 20.4748 26.0164 20.8923 26.1059 21.4403L26.1212 32.433C26.1212 33.2298 26.7589 33.8761 27.5462 33.8772C28.3322 33.8783 28.9702 33.2342 28.9712 32.4387L28.9712 16.9231C28.9712 15.9369 29.7047 15.124 30.6496 15.0129L30.8734 15ZM22 24L20 24C19.4477 24 19 24.4477 19 25L19 27C19 27.5523 19.4477 28 20 28L22 28C22.5523 28 23 27.5523 23 27L23 25C23 24.4477 22.5523 24 22 24ZM20.853 36.87C22.7722 36.87 24.653 38.7736 24.653 40.7162C24.653 42.6588 22.7722 44.5623 20.853 44.5623C18.9338 44.5623 17.053 42.6588 17.053 40.7162C17.053 38.5036 18.7342 36.87 20.853 36.87ZM40.5698 36.87C42.489 36.87 44.3698 38.7736 44.3698 40.7162C44.3698 42.6588 42.489 44.5623 40.5698 44.5623C38.6505 44.5623 36.7698 42.6588 36.7698 40.7162C36.7698 38.5036 38.451 36.87 40.5698 36.87Z" clip-rule="evenodd" fill="url(#paint_linear_25_249_0)" fill-opacity="1.000000" fill-rule="evenodd"/>
</svg>
