<svg width="24.000000" height="24.000000" viewBox="0 0 24 24" fill="none" xmlns="http://www.w3.org/2000/svg" xmlns:xlink="http://www.w3.org/1999/xlink">
	<desc>
			Created with Pixso.
	</desc>
	<defs>
		<clipPath id="clip28_220">
			<rect width="24.000000" height="24.000000" fill="white" fill-opacity="0"/>
		</clipPath>
	</defs>
	<g clip-path="url(#clip28_220)">
		<path d="M5.47 1.99L18.68 1.99C20.36 1.99 21.2 2.83 21.2 4.51L21.2 19.64C21.2 21.31 20.36 22.15 18.68 22.15L5.47 22.15C3.79 22.15 2.95 21.31 2.95 19.64L2.95 4.51C2.95 2.83 3.79 1.99 5.47 1.99Z" fill="#F4566C" fill-opacity="1.000000" fill-rule="nonzero"/>
		<path d="M21.2 11.64L21.2 4.39C21.2 4.31 21.19 4.23 21.19 4.16C21.18 4.08 21.17 4 21.15 3.92C21.14 3.85 21.12 3.77 21.09 3.7C21.07 3.62 21.04 3.55 21.01 3.47C20.98 3.4 20.95 3.33 20.91 3.26C20.88 3.19 20.84 3.12 20.79 3.06C20.75 2.99 20.7 2.93 20.65 2.87C20.6 2.81 20.55 2.75 20.49 2.69C20.44 2.64 20.38 2.59 20.32 2.54C20.26 2.49 20.2 2.44 20.13 2.4C20.06 2.35 20 2.31 19.93 2.28C19.86 2.24 19.79 2.2 19.71 2.17C19.64 2.14 19.57 2.12 19.49 2.1C19.42 2.07 19.34 2.05 19.26 2.04C19.19 2.02 19.11 2.01 19.03 2C18.95 2 18.88 1.99 18.8 1.99L5.35 1.99C5.27 1.99 5.19 2 5.12 2C5.04 2.01 4.96 2.02 4.88 2.04C4.81 2.05 4.73 2.07 4.65 2.1C4.58 2.12 4.5 2.14 4.43 2.17C4.36 2.2 4.29 2.24 4.22 2.28C4.15 2.31 4.08 2.35 4.02 2.4C3.95 2.44 3.89 2.49 3.83 2.54C3.77 2.59 3.71 2.64 3.65 2.69C3.6 2.75 3.55 2.81 3.5 2.87C3.45 2.93 3.4 2.99 3.36 3.06C3.31 3.12 3.27 3.19 3.23 3.26C3.2 3.33 3.16 3.4 3.13 3.47C3.1 3.55 3.08 3.62 3.05 3.7C3.03 3.77 3.01 3.85 3 3.92C2.98 4 2.97 4.08 2.96 4.16C2.95 4.23 2.95 4.31 2.95 4.39L2.95 19.75C2.95 20.04 3 20.32 3.1 20.59C3.2 20.86 3.35 21.1 3.54 21.32C3.98 21.35 4.42 21.36 4.87 21.36C5.31 21.36 5.75 21.34 6.19 21.31C6.64 21.27 7.08 21.22 7.51 21.16C7.95 21.09 8.39 21.01 8.82 20.92C9.25 20.82 9.68 20.71 10.11 20.58C10.53 20.46 10.95 20.32 11.37 20.16C11.78 20 12.19 19.83 12.59 19.65C12.99 19.46 13.39 19.26 13.78 19.05C14.17 18.84 14.55 18.61 14.92 18.37C15.29 18.13 15.66 17.88 16.01 17.61C16.37 17.35 16.71 17.07 17.04 16.78C17.38 16.49 17.7 16.19 18.02 15.87C18.33 15.56 18.63 15.24 18.92 14.9C19.21 14.57 19.49 14.22 19.76 13.87C20.02 13.51 20.28 13.15 20.52 12.78C20.76 12.4 20.98 12.02 21.2 11.64Z" fill="#F56677" fill-opacity="1.000000" fill-rule="nonzero"/>
		<path d="M19.08 2.01C18.98 2 18.89 1.99 18.8 1.99L5.35 1.99C5.27 1.99 5.19 2 5.12 2.01C5.04 2.01 4.96 2.02 4.88 2.04C4.81 2.06 4.73 2.07 4.65 2.1C4.58 2.12 4.5 2.15 4.43 2.18C4.36 2.21 4.29 2.24 4.22 2.28C4.15 2.31 4.08 2.36 4.02 2.4C3.95 2.44 3.89 2.49 3.83 2.54C3.77 2.59 3.71 2.64 3.65 2.7C3.6 2.75 3.55 2.81 3.5 2.87C3.45 2.93 3.4 3 3.36 3.06C3.31 3.13 3.27 3.19 3.23 3.26C3.2 3.33 3.16 3.4 3.13 3.48C3.1 3.55 3.08 3.62 3.05 3.7C3.03 3.77 3.01 3.85 3 3.93C2.98 4 2.97 4.08 2.96 4.16C2.95 4.24 2.95 4.32 2.95 4.39L2.95 16.24C3.43 16.19 3.9 16.12 4.37 16.03C4.83 15.94 5.3 15.83 5.76 15.71C6.22 15.58 6.68 15.44 7.13 15.28C7.58 15.12 8.02 14.94 8.46 14.75C8.89 14.56 9.32 14.35 9.74 14.12C10.16 13.89 10.57 13.65 10.97 13.39C11.38 13.14 11.77 12.86 12.15 12.58C12.53 12.29 12.9 11.99 13.26 11.67C13.61 11.35 13.96 11.02 14.29 10.68C14.63 10.34 14.94 9.99 15.25 9.62C15.56 9.25 15.85 8.87 16.12 8.49C16.4 8.1 16.66 7.7 16.91 7.29C17.16 6.88 17.39 6.46 17.6 6.04C17.81 5.61 18.01 5.18 18.19 4.73C18.37 4.29 18.54 3.84 18.69 3.39C18.83 2.94 18.96 2.48 19.08 2.01Z" fill="#F67C85" fill-opacity="1.000000" fill-rule="nonzero"/>
		<path d="M12.51 1.99L5.35 1.99C5.27 1.99 5.19 2 5.12 2.01C5.04 2.01 4.96 2.02 4.88 2.04C4.81 2.06 4.73 2.07 4.65 2.1C4.58 2.12 4.5 2.15 4.43 2.18C4.36 2.21 4.29 2.24 4.22 2.28C4.15 2.31 4.08 2.36 4.02 2.4C3.95 2.44 3.89 2.49 3.83 2.54C3.77 2.59 3.71 2.64 3.65 2.7C3.6 2.75 3.55 2.81 3.5 2.87C3.45 2.93 3.4 3 3.36 3.06C3.31 3.13 3.27 3.19 3.23 3.26C3.2 3.33 3.16 3.4 3.13 3.48C3.1 3.55 3.08 3.62 3.05 3.7C3.03 3.77 3.01 3.85 3 3.93C2.98 4 2.97 4.08 2.96 4.16C2.95 4.24 2.95 4.32 2.95 4.39L2.95 9.77C3.44 9.59 3.93 9.4 4.41 9.18C4.88 8.96 5.35 8.73 5.81 8.47C6.26 8.21 6.71 7.94 7.14 7.64C7.57 7.35 7.99 7.03 8.4 6.7C8.8 6.37 9.2 6.03 9.57 5.66C9.95 5.3 10.31 4.92 10.65 4.52C11 4.13 11.33 3.72 11.64 3.3C11.95 2.88 12.24 2.44 12.51 1.99Z" fill="#F78B90" fill-opacity="1.000000" fill-rule="nonzero"/>
		<path d="M21.2 6.87L21.2 4.46C21.2 4.4 21.2 4.34 21.19 4.28C20.99 4.51 20.79 4.72 20.57 4.93C20.35 5.13 20.12 5.32 19.88 5.5C19.64 5.69 19.4 5.85 19.14 6.01C18.88 6.16 18.62 6.3 18.35 6.42C18.08 6.55 17.8 6.66 17.52 6.75C17.23 6.85 16.95 6.93 16.65 6.99C16.36 7.06 16.07 7.11 15.77 7.14C15.47 7.17 15.17 7.19 14.88 7.19L9.27 7.19C8.97 7.19 8.67 7.17 8.38 7.14C8.08 7.1 7.79 7.06 7.49 6.99C7.2 6.93 6.91 6.85 6.63 6.75C6.35 6.66 6.07 6.55 5.8 6.42C5.53 6.3 5.26 6.16 5.01 6C4.75 5.85 4.5 5.68 4.27 5.5C4.03 5.32 3.8 5.13 3.58 4.93C3.36 4.72 3.16 4.51 2.96 4.28C2.96 4.34 2.95 4.4 2.95 4.46L2.95 6.87C3.02 6.93 3.09 6.98 3.16 7.03C3.6 7.36 4.06 7.65 4.55 7.9C5.03 8.16 5.53 8.37 6.05 8.54C6.57 8.71 7.1 8.84 7.64 8.92C8.18 9.01 8.72 9.05 9.27 9.05L14.88 9.05C15.42 9.05 15.97 9.01 16.51 8.93C17.05 8.84 17.58 8.71 18.1 8.54C18.62 8.37 19.12 8.16 19.61 7.9C20.09 7.65 20.56 7.36 21 7.03C21.06 6.98 21.13 6.93 21.2 6.87ZM12.08 13.95C11.9 13.95 11.72 13.94 11.55 13.92C11.37 13.9 11.2 13.87 11.03 13.82C10.86 13.78 10.69 13.73 10.52 13.67C10.36 13.61 10.2 13.54 10.04 13.46C9.88 13.38 9.73 13.29 9.58 13.2C9.43 13.1 9.29 13 9.16 12.88C9.02 12.77 8.89 12.65 8.77 12.52C8.65 12.39 8.54 12.26 8.43 12.12C8.4 12.06 8.37 12.01 8.35 11.95C8.32 11.9 8.3 11.84 8.29 11.78C8.28 11.72 8.27 11.66 8.27 11.6C8.27 11.54 8.28 11.48 8.29 11.42C8.3 11.36 8.31 11.3 8.34 11.24C8.36 11.19 8.39 11.13 8.42 11.08C8.46 11.03 8.49 10.98 8.54 10.94C8.58 10.89 8.63 10.85 8.68 10.82C8.73 10.79 8.78 10.76 8.84 10.73C8.89 10.71 8.95 10.69 9.01 10.68C9.07 10.66 9.13 10.66 9.19 10.66C9.25 10.66 9.31 10.66 9.37 10.67C9.43 10.68 9.49 10.7 9.55 10.72C9.61 10.75 9.66 10.78 9.71 10.81C9.76 10.84 9.81 10.88 9.85 10.92C9.9 10.97 9.94 11.01 9.97 11.06C10.1 11.22 10.24 11.37 10.39 11.49C10.55 11.62 10.72 11.73 10.9 11.82C11.09 11.91 11.28 11.97 11.47 12.02C11.67 12.07 11.87 12.09 12.08 12.09C12.27 12.09 12.46 12.07 12.65 12.03C12.84 11.98 13.02 11.92 13.2 11.83C13.37 11.75 13.53 11.64 13.68 11.52C13.83 11.39 13.96 11.25 14.08 11.09C14.11 11.04 14.15 10.99 14.19 10.95C14.23 10.9 14.28 10.86 14.33 10.83C14.37 10.79 14.43 10.76 14.48 10.74C14.54 10.71 14.6 10.69 14.65 10.68C14.71 10.66 14.77 10.66 14.84 10.66C14.9 10.65 14.96 10.66 15.02 10.67C15.08 10.68 15.14 10.69 15.19 10.71C15.25 10.74 15.3 10.76 15.36 10.8C15.41 10.83 15.46 10.86 15.5 10.91C15.54 10.95 15.58 11 15.62 11.05C15.66 11.09 15.69 11.15 15.71 11.2C15.74 11.26 15.76 11.32 15.77 11.38C15.78 11.44 15.79 11.5 15.79 11.56C15.8 11.62 15.79 11.68 15.78 11.74C15.77 11.8 15.76 11.86 15.73 11.92C15.71 11.98 15.69 12.03 15.65 12.08C15.55 12.23 15.45 12.36 15.33 12.5C15.21 12.63 15.09 12.75 14.96 12.87C14.83 12.98 14.69 13.09 14.54 13.19C14.4 13.29 14.25 13.38 14.1 13.46C13.94 13.54 13.78 13.61 13.62 13.67C13.45 13.74 13.29 13.79 13.12 13.83C12.95 13.87 12.77 13.9 12.6 13.92C12.43 13.94 12.25 13.95 12.08 13.95Z" fill="#FFFFFF" fill-opacity="1.000000" fill-rule="nonzero"/>
	</g>
</svg>
