<svg width="24.000000" height="24.000000" viewBox="0 0 24 24" fill="none" xmlns="http://www.w3.org/2000/svg" xmlns:xlink="http://www.w3.org/1999/xlink">
	<desc>
			Created with Pixso.
	</desc>
	<defs>
		<clipPath id="clip186_2739">
			<rect width="23.999998" height="24.000000" fill="white" fill-opacity="0"/>
		</clipPath>
	</defs>
	<g clip-path="url(#clip186_2739)">
		<path d="M12 6.99C12.06 7 12.13 6.99 12.19 6.99C12.26 6.98 12.33 6.98 12.39 6.96C12.46 6.95 12.52 6.94 12.59 6.92C12.65 6.9 12.71 6.88 12.78 6.86C12.84 6.83 12.9 6.81 12.96 6.77C13.02 6.74 13.07 6.71 13.13 6.67C13.19 6.64 13.24 6.6 13.29 6.56C13.34 6.52 13.39 6.47 13.44 6.43C13.49 6.38 13.53 6.33 13.58 6.28C13.62 6.23 13.66 6.18 13.7 6.12C13.73 6.07 13.77 6.01 13.8 5.95C13.83 5.89 13.86 5.83 13.89 5.77C13.91 5.71 13.94 5.65 13.96 5.58C13.98 5.52 13.99 5.46 14 5.39C14.02 5.33 14.03 5.26 14.03 5.19C14.04 5.13 14.04 5.06 14.04 4.99C14.04 4.93 14.04 4.86 14.03 4.8C14.03 4.73 14.02 4.66 14 4.6C13.99 4.53 13.98 4.47 13.96 4.41C13.94 4.34 13.91 4.28 13.89 4.22C13.86 4.16 13.83 4.1 13.8 4.04C13.77 3.98 13.73 3.92 13.7 3.87C13.66 3.81 13.62 3.76 13.58 3.71C13.53 3.66 13.49 3.61 13.44 3.56C13.39 3.52 13.34 3.47 13.29 3.43C13.24 3.39 13.19 3.35 13.13 3.31C13.07 3.28 13.02 3.25 12.96 3.21C12.9 3.18 12.84 3.16 12.78 3.13C12.71 3.11 12.65 3.09 12.59 3.07C12.52 3.05 12.46 3.04 12.39 3.02C12.33 3.01 12.26 3.01 12.19 3C12.13 3 12.06 2.99 12 3C11.93 3 11.87 3 11.8 3.01C11.74 3.02 11.67 3.03 11.61 3.04C11.55 3.06 11.49 3.07 11.43 3.09C11.36 3.11 11.3 3.14 11.24 3.16C11.19 3.19 11.13 3.22 11.07 3.25C11.02 3.28 10.96 3.31 10.91 3.35C10.85 3.39 10.8 3.42 10.75 3.47C10.7 3.51 10.66 3.55 10.61 3.6C10.57 3.64 10.52 3.69 10.48 3.74C10.44 3.79 10.41 3.84 10.37 3.9C10.34 3.95 10.3 4.01 10.27 4.07C10.24 4.12 10.22 4.18 10.19 4.24C10.17 4.3 10.15 4.36 10.13 4.42C10.11 4.48 10.09 4.55 10.08 4.61C10.07 4.67 10.06 4.74 10.05 4.8C10.05 4.87 10.04 4.93 10.04 4.99C10.04 5.06 10.05 5.12 10.05 5.19C10.06 5.25 10.07 5.32 10.08 5.38C10.09 5.44 10.11 5.5 10.13 5.57C10.15 5.63 10.17 5.69 10.19 5.75C10.22 5.81 10.24 5.87 10.27 5.92C10.3 5.98 10.34 6.04 10.37 6.09C10.41 6.14 10.44 6.2 10.48 6.25C10.52 6.3 10.57 6.35 10.61 6.39C10.66 6.44 10.7 6.48 10.75 6.52C10.8 6.57 10.85 6.6 10.91 6.64C10.96 6.68 11.02 6.71 11.07 6.74C11.13 6.77 11.19 6.8 11.24 6.83C11.3 6.85 11.36 6.88 11.43 6.9C11.49 6.92 11.55 6.93 11.61 6.95C11.67 6.96 11.74 6.97 11.8 6.98C11.87 6.99 11.93 6.99 12 6.99Z" fill="#000000" fill-opacity="0.600000" fill-rule="nonzero"/>
		<path d="M9.99 12C9.99 12.06 10 12.13 10 12.19C10.01 12.26 10.02 12.32 10.03 12.39C10.05 12.45 10.06 12.51 10.08 12.58C10.1 12.64 10.12 12.7 10.15 12.76C10.17 12.82 10.2 12.88 10.23 12.94C10.26 13 10.3 13.05 10.33 13.11C10.37 13.16 10.41 13.21 10.45 13.26C10.49 13.31 10.53 13.36 10.58 13.41C10.63 13.46 10.68 13.5 10.73 13.54C10.78 13.58 10.83 13.62 10.88 13.66C10.94 13.69 10.99 13.73 11.05 13.76C11.11 13.79 11.17 13.82 11.23 13.84C11.29 13.87 11.35 13.89 11.41 13.91C11.48 13.93 11.54 13.94 11.6 13.96C11.67 13.97 11.73 13.98 11.8 13.99C11.86 13.99 11.93 14 12 14C12.06 14 12.13 13.99 12.19 13.99C12.26 13.98 12.32 13.97 12.39 13.96C12.45 13.94 12.51 13.93 12.58 13.91C12.64 13.89 12.7 13.87 12.76 13.84C12.82 13.82 12.88 13.79 12.94 13.76C13 13.73 13.05 13.69 13.11 13.66C13.16 13.62 13.21 13.58 13.26 13.54C13.31 13.5 13.36 13.46 13.41 13.41C13.46 13.36 13.5 13.31 13.54 13.26C13.58 13.21 13.62 13.16 13.66 13.11C13.69 13.05 13.73 13 13.76 12.94C13.79 12.88 13.82 12.82 13.84 12.76C13.87 12.7 13.89 12.64 13.91 12.58C13.93 12.51 13.94 12.45 13.96 12.39C13.97 12.32 13.98 12.26 13.99 12.19C13.99 12.13 14 12.06 14 12C14 11.93 13.99 11.86 13.99 11.8C13.98 11.73 13.97 11.67 13.96 11.6C13.94 11.54 13.93 11.48 13.91 11.41C13.89 11.35 13.87 11.29 13.84 11.23C13.82 11.17 13.79 11.11 13.76 11.05C13.73 10.99 13.69 10.94 13.66 10.88C13.62 10.83 13.58 10.78 13.54 10.73C13.5 10.68 13.46 10.63 13.41 10.58C13.36 10.53 13.31 10.49 13.26 10.45C13.21 10.41 13.16 10.37 13.11 10.33C13.05 10.3 13 10.26 12.94 10.23C12.88 10.2 12.82 10.17 12.76 10.15C12.7 10.12 12.64 10.1 12.58 10.08C12.51 10.06 12.45 10.05 12.39 10.03C12.32 10.02 12.26 10.01 12.19 10C12.13 10 12.06 9.99 12 9.99C11.93 9.99 11.86 10 11.8 10C11.73 10.01 11.67 10.02 11.6 10.03C11.54 10.05 11.48 10.06 11.41 10.08C11.35 10.1 11.29 10.12 11.23 10.15C11.17 10.17 11.11 10.2 11.05 10.23C10.99 10.26 10.94 10.3 10.88 10.33C10.83 10.37 10.78 10.41 10.73 10.45C10.68 10.49 10.63 10.53 10.58 10.58C10.53 10.63 10.49 10.68 10.45 10.73C10.41 10.78 10.37 10.83 10.33 10.88C10.3 10.94 10.26 10.99 10.23 11.05C10.2 11.11 10.17 11.17 10.15 11.23C10.12 11.29 10.1 11.35 10.08 11.41C10.06 11.48 10.05 11.54 10.03 11.6C10.02 11.67 10.01 11.73 10 11.8C10 11.86 9.99 11.93 9.99 12Z" fill="#000000" fill-opacity="0.600000" fill-rule="nonzero"/>
		<path d="M12 21C12.06 21 12.13 20.99 12.19 20.99C12.26 20.98 12.32 20.97 12.39 20.96C12.45 20.94 12.51 20.93 12.58 20.91C12.64 20.89 12.7 20.87 12.76 20.84C12.82 20.82 12.88 20.79 12.94 20.76C13 20.73 13.05 20.69 13.11 20.66C13.16 20.62 13.21 20.58 13.26 20.54C13.31 20.5 13.36 20.46 13.41 20.41C13.46 20.36 13.5 20.31 13.54 20.26C13.58 20.21 13.62 20.16 13.66 20.11C13.69 20.05 13.73 20 13.76 19.94C13.79 19.88 13.82 19.82 13.84 19.76C13.87 19.7 13.89 19.64 13.91 19.58C13.93 19.51 13.94 19.45 13.96 19.38C13.97 19.32 13.98 19.26 13.99 19.19C13.99 19.13 14 19.06 14 18.99C14 18.93 13.99 18.86 13.99 18.8C13.98 18.73 13.97 18.67 13.96 18.6C13.94 18.54 13.93 18.48 13.91 18.41C13.89 18.35 13.87 18.29 13.84 18.23C13.82 18.17 13.79 18.11 13.76 18.05C13.73 17.99 13.69 17.94 13.66 17.88C13.62 17.83 13.58 17.78 13.54 17.73C13.5 17.67 13.46 17.63 13.41 17.58C13.36 17.53 13.31 17.49 13.26 17.45C13.21 17.41 13.16 17.37 13.11 17.33C13.05 17.29 13 17.26 12.94 17.23C12.88 17.2 12.82 17.17 12.76 17.15C12.7 17.12 12.64 17.1 12.58 17.08C12.51 17.06 12.45 17.05 12.39 17.03C12.32 17.02 12.26 17.01 12.19 17C12.13 17 12.06 16.99 12 16.99C11.93 16.99 11.86 17 11.8 17C11.73 17.01 11.67 17.02 11.6 17.03C11.54 17.05 11.48 17.06 11.41 17.08C11.35 17.1 11.29 17.12 11.23 17.15C11.17 17.17 11.11 17.2 11.05 17.23C10.99 17.26 10.94 17.29 10.88 17.33C10.83 17.37 10.78 17.41 10.73 17.45C10.68 17.49 10.63 17.53 10.58 17.58C10.53 17.63 10.49 17.67 10.45 17.73C10.41 17.78 10.37 17.83 10.33 17.88C10.3 17.94 10.26 17.99 10.23 18.05C10.2 18.11 10.17 18.17 10.15 18.23C10.12 18.29 10.1 18.35 10.08 18.41C10.06 18.48 10.05 18.54 10.03 18.6C10.02 18.67 10.01 18.73 10 18.8C10 18.86 9.99 18.93 9.99 18.99C9.99 19.06 10 19.13 10 19.19C10.01 19.26 10.02 19.32 10.03 19.38C10.05 19.45 10.06 19.51 10.08 19.58C10.1 19.64 10.12 19.7 10.15 19.76C10.17 19.82 10.2 19.88 10.23 19.94C10.26 20 10.3 20.05 10.33 20.11C10.37 20.16 10.41 20.21 10.45 20.26C10.49 20.31 10.53 20.36 10.58 20.41C10.63 20.46 10.68 20.5 10.73 20.54C10.78 20.58 10.83 20.62 10.88 20.66C10.94 20.69 10.99 20.73 11.05 20.76C11.11 20.79 11.17 20.82 11.23 20.84C11.29 20.87 11.35 20.89 11.41 20.91C11.48 20.93 11.54 20.94 11.6 20.96C11.67 20.97 11.73 20.98 11.8 20.99C11.86 20.99 11.93 21 12 21Z" fill="#000000" fill-opacity="0.600000" fill-rule="nonzero"/>
	</g>
</svg>
