<svg width="20.000000" height="20.000000" viewBox="0 0 20 20" fill="none" xmlns="http://www.w3.org/2000/svg" xmlns:xlink="http://www.w3.org/1999/xlink">
	<desc>
			Created with Pixso.
	</desc>
	<defs>
		<clipPath id="clip46_710">
			<rect width="16.000000" height="16.000000" transform="translate(3.000000 2.000000)" fill="white" fill-opacity="0"/>
		</clipPath>
	</defs>
	<path d="M8 0L20 0L20 13C20 16.86 16.86 20 13 20L0 20L0 8C0 3.58 3.58 0 8 0Z" fill="#0A59F7" fill-opacity="1.000000" fill-rule="evenodd"/>
	<g clip-path="url(#clip46_710)">
		<g opacity="0.000000">
			<rect x="4.000000" y="3.000000" width="14.000000" height="14.000000" fill="#D8D8D8" fill-opacity="1.000000"/>
			<rect x="4.000000" y="3.000000" width="14.000000" height="14.000000" stroke="#000000" stroke-opacity="0" stroke-width="1.000000"/>
		</g>
		<path d="M9 14.45C8.55 14.45 8.13 14.28 7.82 13.97L4.52 10.67C4.26 10.41 4.26 9.99 4.52 9.73C4.78 9.47 5.21 9.47 5.47 9.73L8.76 13.02C8.84 13.11 8.94 13.12 9 13.12C9.05 13.12 9.15 13.11 9.23 13.02L16.52 5.73C16.78 5.47 17.21 5.47 17.47 5.73C17.73 5.99 17.73 6.41 17.47 6.67L10.17 13.97C9.86 14.28 9.44 14.45 9 14.45Z" fill="#FFFFFF" fill-opacity="1.000000" fill-rule="evenodd"/>
		<path d="M7.82 13.97L4.52 10.67C4.26 10.41 4.26 9.99 4.52 9.73C4.78 9.47 5.21 9.47 5.47 9.73L8.76 13.02C8.84 13.11 8.94 13.12 9 13.12C9.05 13.12 9.15 13.11 9.23 13.02L16.52 5.73C16.78 5.47 17.21 5.47 17.47 5.73C17.73 5.99 17.73 6.41 17.47 6.67L10.17 13.97C9.86 14.28 9.44 14.45 9 14.45C8.55 14.45 8.13 14.28 7.82 13.97Z" stroke="#000000" stroke-opacity="0" stroke-width="1.000000"/>
	</g>
</svg>
