<svg width="24.000000" height="24.000000" viewBox="0 0 24 24" fill="none" xmlns="http://www.w3.org/2000/svg" xmlns:xlink="http://www.w3.org/1999/xlink">
	<desc>
			Created with Pixso.
	</desc>
	<defs>
		<clipPath id="clip25_252">
			<rect width="24.000000" height="24.000000" fill="white" fill-opacity="0"/>
		</clipPath>
	</defs>
	<g clip-path="url(#clip25_252)">
		<path d="M1.41 8.47L18.86 18.44C18.93 18.48 18.99 18.53 19.04 18.59C19.09 18.64 19.13 18.71 19.16 18.78C19.19 18.85 19.21 18.93 19.22 19.01C19.22 19.08 19.21 19.16 19.2 19.23C19.18 19.31 19.14 19.38 19.1 19.44C19.06 19.51 19.01 19.57 18.94 19.61C18.88 19.66 18.81 19.7 18.74 19.72C18.67 19.75 18.59 19.76 18.51 19.76L4.07 19.76C3.98 19.76 3.9 19.75 3.81 19.74C3.73 19.72 3.65 19.7 3.57 19.67C3.49 19.64 3.41 19.6 3.34 19.56C3.26 19.51 3.19 19.46 3.13 19.41C3.07 19.35 3.01 19.29 2.96 19.22C2.9 19.15 2.86 19.08 2.82 19.01C2.78 18.93 2.74 18.85 2.72 18.77C2.69 18.69 2.67 18.61 2.66 18.52L1.41 8.47Z" fill="#F5C164" fill-opacity="1.000000" fill-rule="nonzero"/>
		<path d="M22.58 8.47L21.33 18.52C21.32 18.61 21.3 18.69 21.27 18.77C21.25 18.85 21.21 18.93 21.17 19.01C21.13 19.08 21.09 19.15 21.03 19.22C20.98 19.29 20.92 19.35 20.86 19.41C20.8 19.46 20.73 19.51 20.65 19.56C20.58 19.6 20.5 19.64 20.42 19.67C20.34 19.7 20.26 19.72 20.18 19.74C20.09 19.75 20.01 19.76 19.92 19.76L5.48 19.76C5.4 19.76 5.32 19.75 5.25 19.72C5.18 19.7 5.11 19.66 5.05 19.61C4.98 19.57 4.93 19.51 4.89 19.45C4.85 19.38 4.81 19.31 4.79 19.24C4.77 19.16 4.77 19.08 4.77 19.01C4.78 18.93 4.8 18.85 4.83 18.78C4.86 18.71 4.9 18.64 4.95 18.59C5 18.53 5.06 18.48 5.13 18.44L22.58 8.47Z" fill="#F5C164" fill-opacity="1.000000" fill-rule="nonzero"/>
		<path d="M12 5.64L19.75 17.58C19.82 17.69 19.88 17.8 19.92 17.92C19.95 18.04 19.98 18.17 19.98 18.29C19.99 18.42 19.97 18.54 19.95 18.67C19.92 18.79 19.87 18.91 19.81 19.02C19.75 19.13 19.68 19.23 19.59 19.33C19.5 19.42 19.4 19.5 19.29 19.56C19.18 19.63 19.07 19.68 18.94 19.71C18.82 19.74 18.7 19.76 18.57 19.76L5.42 19.76C5.29 19.76 5.17 19.74 5.05 19.71C4.92 19.68 4.81 19.63 4.7 19.56C4.59 19.5 4.49 19.42 4.4 19.33C4.31 19.23 4.24 19.13 4.18 19.02C4.12 18.91 4.07 18.79 4.04 18.67C4.02 18.54 4 18.42 4.01 18.29C4.01 18.17 4.04 18.04 4.07 17.92C4.11 17.8 4.17 17.69 4.24 17.58L12 5.64Z" fill="#FFE09E" fill-opacity="1.000000" fill-rule="nonzero"/>
		<path d="M12 5.64L19.75 17.58C19.82 17.69 19.88 17.8 19.92 17.92C19.95 18.04 19.98 18.17 19.98 18.29C19.99 18.42 19.97 18.54 19.95 18.67C19.92 18.79 19.87 18.91 19.81 19.02C19.75 19.13 19.68 19.23 19.59 19.33C19.5 19.42 19.4 19.5 19.29 19.56C19.18 19.63 19.07 19.68 18.94 19.71C18.82 19.74 18.7 19.76 18.57 19.76L12 19.76L12 5.64Z" fill="#F9CF7E" fill-opacity="1.000000" fill-rule="nonzero"/>
		<path d="M10.58 4.94C10.58 5.03 10.59 5.12 10.61 5.21C10.63 5.3 10.66 5.39 10.69 5.48C10.73 5.56 10.77 5.64 10.82 5.72C10.87 5.8 10.93 5.87 11 5.93C11.06 6 11.13 6.06 11.21 6.11C11.29 6.16 11.37 6.21 11.45 6.24C11.54 6.28 11.63 6.3 11.72 6.32C11.81 6.34 11.9 6.35 12 6.35C12.09 6.35 12.18 6.34 12.27 6.32C12.36 6.3 12.45 6.28 12.54 6.24C12.62 6.21 12.7 6.16 12.78 6.11C12.86 6.06 12.93 6 12.99 5.93C13.06 5.87 13.12 5.8 13.17 5.72C13.22 5.64 13.26 5.56 13.3 5.48C13.33 5.39 13.36 5.3 13.38 5.21C13.4 5.12 13.41 5.03 13.41 4.94C13.41 4.84 13.4 4.75 13.38 4.66C13.36 4.57 13.33 4.48 13.3 4.4C13.26 4.31 13.22 4.23 13.17 4.15C13.12 4.07 13.06 4 12.99 3.94C12.93 3.87 12.86 3.81 12.78 3.76C12.7 3.71 12.62 3.67 12.54 3.63C12.45 3.6 12.36 3.57 12.27 3.55C12.18 3.53 12.09 3.52 12 3.52C11.9 3.52 11.81 3.53 11.72 3.55C11.63 3.57 11.54 3.6 11.45 3.63C11.37 3.67 11.29 3.71 11.21 3.76C11.13 3.81 11.06 3.87 11 3.94C10.93 4 10.87 4.07 10.82 4.15C10.77 4.23 10.73 4.31 10.69 4.4C10.66 4.48 10.63 4.57 10.61 4.66C10.59 4.75 10.58 4.84 10.58 4.94Z" fill="#FFE19F" fill-opacity="1.000000" fill-rule="nonzero"/>
		<path d="M21.17 7.76C21.17 7.85 21.18 7.94 21.2 8.04C21.22 8.13 21.24 8.21 21.28 8.3C21.31 8.39 21.36 8.47 21.41 8.54C21.46 8.62 21.52 8.69 21.59 8.76C21.65 8.82 21.72 8.88 21.8 8.93C21.88 8.99 21.96 9.03 22.04 9.06C22.13 9.1 22.22 9.13 22.31 9.14C22.4 9.16 22.49 9.17 22.58 9.17C22.68 9.17 22.77 9.16 22.86 9.14C22.95 9.13 23.04 9.1 23.12 9.06C23.21 9.03 23.29 8.99 23.37 8.93C23.44 8.88 23.52 8.82 23.58 8.76C23.65 8.69 23.71 8.62 23.76 8.54C23.81 8.47 23.85 8.39 23.89 8.3C23.92 8.21 23.95 8.13 23.97 8.04C23.99 7.94 24 7.85 24 7.76C24 7.67 23.99 7.58 23.97 7.48C23.95 7.39 23.92 7.31 23.89 7.22C23.85 7.13 23.81 7.05 23.76 6.98C23.71 6.9 23.65 6.83 23.58 6.76C23.52 6.7 23.44 6.64 23.37 6.59C23.29 6.53 23.21 6.49 23.12 6.46C23.04 6.42 22.95 6.39 22.86 6.38C22.77 6.36 22.68 6.35 22.58 6.35C22.49 6.35 22.4 6.36 22.31 6.38C22.22 6.39 22.13 6.42 22.04 6.46C21.96 6.49 21.88 6.53 21.8 6.59C21.72 6.64 21.65 6.7 21.59 6.76C21.52 6.83 21.46 6.9 21.41 6.98C21.36 7.05 21.31 7.13 21.28 7.22C21.24 7.31 21.22 7.39 21.2 7.48C21.18 7.58 21.17 7.67 21.17 7.76Z" fill="#FFE19F" fill-opacity="1.000000" fill-rule="nonzero"/>
		<path d="M0 7.76C0 7.85 0 7.94 0.02 8.04C0.04 8.13 0.07 8.21 0.1 8.3C0.14 8.39 0.18 8.47 0.23 8.54C0.28 8.62 0.34 8.69 0.41 8.76C0.47 8.82 0.55 8.88 0.62 8.93C0.7 8.99 0.78 9.03 0.87 9.06C0.95 9.1 1.04 9.13 1.13 9.14C1.22 9.16 1.31 9.17 1.41 9.17C1.5 9.17 1.59 9.16 1.68 9.14C1.77 9.13 1.86 9.1 1.95 9.06C2.03 9.03 2.11 8.99 2.19 8.93C2.27 8.88 2.34 8.82 2.41 8.76C2.47 8.69 2.53 8.62 2.58 8.54C2.63 8.47 2.68 8.39 2.71 8.3C2.75 8.21 2.77 8.13 2.79 8.04C2.81 7.94 2.82 7.85 2.82 7.76C2.82 7.67 2.81 7.58 2.79 7.48C2.77 7.39 2.75 7.31 2.71 7.22C2.68 7.13 2.63 7.05 2.58 6.98C2.53 6.9 2.47 6.83 2.41 6.76C2.34 6.7 2.27 6.64 2.19 6.59C2.11 6.53 2.03 6.49 1.95 6.46C1.86 6.42 1.77 6.39 1.68 6.38C1.59 6.36 1.5 6.35 1.41 6.35C1.31 6.35 1.22 6.36 1.13 6.38C1.04 6.39 0.95 6.42 0.87 6.46C0.78 6.49 0.7 6.53 0.62 6.59C0.55 6.64 0.47 6.7 0.41 6.76C0.34 6.83 0.28 6.9 0.23 6.98C0.18 7.05 0.14 7.13 0.1 7.22C0.07 7.31 0.04 7.39 0.02 7.48C0 7.58 0 7.67 0 7.76Z" fill="#FFE19F" fill-opacity="1.000000" fill-rule="nonzero"/>
	</g>
</svg>
