<svg width="12.000000" height="12.000000" viewBox="0 0 12 12" fill="none" xmlns="http://www.w3.org/2000/svg" xmlns:xlink="http://www.w3.org/1999/xlink">
	<desc>
			Created with Pixso.
	</desc>
	<defs>
		<clipPath id="clip42_784">
			<rect width="12.000000" height="12.000000" fill="white" fill-opacity="0"/>
		</clipPath>
	</defs>
	<g clip-path="url(#clip42_784)">
		<rect width="12.000000" height="12.000000" fill="#000000" fill-opacity="0"/>
		<rect width="12.000000" height="12.000000" stroke="#000000" stroke-opacity="0" stroke-width="1.000000"/>
		<path d="M6 1C8.75 1 11 3.24 11 6C11 8.75 8.75 11 6 11C3.24 11 1 8.75 1 6C1 3.24 3.24 1 6 1ZM6 5C5.72 5 5.5 5.22 5.5 5.5L5.5 8.5C5.5 8.77 5.72 9 6 9C6.27 9 6.5 8.77 6.5 8.5L6.5 5.5C6.5 5.22 6.27 5 6 5ZM6 3C5.65 3 5.37 3.27 5.37 3.62C5.37 3.97 5.65 4.25 6 4.25C6.34 4.25 6.62 3.97 6.62 3.62C6.62 3.27 6.34 3 6 3Z" fill="#FFFFFF" fill-opacity="1.000000" fill-rule="nonzero"/>
		<path d="M11 6C11 8.75 8.75 11 6 11C3.24 11 1 8.75 1 6C1 3.24 3.24 1 6 1C8.75 1 11 3.24 11 6ZM5.5 5.5L5.5 8.5C5.5 8.77 5.72 9 6 9C6.27 9 6.5 8.77 6.5 8.5L6.5 5.5C6.5 5.22 6.27 5 6 5C5.72 5 5.5 5.22 5.5 5.5ZM5.37 3.62C5.37 3.97 5.65 4.25 6 4.25C6.34 4.25 6.62 3.97 6.62 3.62C6.62 3.27 6.34 3 6 3C5.65 3 5.37 3.27 5.37 3.62Z" stroke="#000000" stroke-opacity="0" stroke-width="1.000000"/>
	</g>
</svg>
