<svg width="16.048927" height="16.000000" viewBox="0 0 16.0489 16" fill="none" xmlns="http://www.w3.org/2000/svg" xmlns:xlink="http://www.w3.org/1999/xlink">
	<desc>
			Created with Pixso.
	</desc>
	<defs>
		<clipPath id="clip98_4169">
			<rect width="16.048929" height="16.000000" fill="white" fill-opacity="0"/>
		</clipPath>
	</defs>
	<g clip-path="url(#clip98_4169)">
		<path d="M6.76 6.07C8.4 6.07 10.11 5.71 11.13 5.03L11.13 6.28L12.08 6.28L12.08 3.54C12.08 1.9 9.34 1.01 6.76 1.01C4.18 1.01 1.44 1.9 1.44 3.54L1.44 11C1.44 12.65 4.18 13.54 6.76 13.54L6.76 12.59C4.05 12.59 2.39 11.67 2.39 11L2.39 8.76C3.41 9.45 5.12 9.81 6.76 9.81L6.76 8.86C4.05 8.86 2.39 7.94 2.39 7.27L2.39 5.03C3.41 5.71 5.12 6.07 6.76 6.07ZM6.76 1.96C9.47 1.96 11.13 2.88 11.13 3.54C11.13 4.2 9.47 5.13 6.76 5.13C4.05 5.13 2.39 4.2 2.39 3.54C2.39 2.88 4.05 1.96 6.76 1.96ZM11.01 6.59C8.66 6.59 7.42 7.5 7.42 8.39L7.42 13.18C7.42 14.07 8.66 14.98 11.01 14.98C13.35 14.98 14.58 14.09 14.6 13.2L14.6 13.2L14.6 8.39C14.6 7.5 13.37 6.59 11.01 6.59ZM11.01 7.54C12.75 7.54 13.65 8.13 13.65 8.39C13.65 8.64 12.75 9.24 11.01 9.24C9.27 9.24 8.37 8.64 8.37 8.39C8.37 8.13 9.27 7.54 11.01 7.54ZM11.01 14.03C9.27 14.03 8.37 13.44 8.37 13.18L8.37 12.04C8.97 12.36 9.86 12.58 11.01 12.58C12.17 12.58 13.05 12.36 13.65 12.04L13.65 13.18C13.65 13.44 12.75 14.03 11.01 14.03ZM11.01 11.63C9.27 11.63 8.37 11.04 8.37 10.78L8.37 9.64C8.97 9.97 9.86 10.18 11.01 10.18C12.17 10.18 13.05 9.97 13.65 9.64L13.65 10.78C13.65 11.04 12.75 11.63 11.01 11.63Z" fill="#68401F" fill-opacity="1.000000" fill-rule="nonzero"/>
	</g>
</svg>
