<svg width="16.048935" height="16.000000" viewBox="0 0 16.0489 16" fill="none" xmlns="http://www.w3.org/2000/svg" xmlns:xlink="http://www.w3.org/1999/xlink">
	<desc>
			Created with Pixso.
	</desc>
	<defs>
		<clipPath id="clip98_4159">
			<rect width="16.048929" height="16.000000" fill="white" fill-opacity="0"/>
		</clipPath>
	</defs>
	<g clip-path="url(#clip98_4159)">
		<rect width="16.048929" height="16.000000" fill="#000000" fill-opacity="0"/>
		<rect width="16.048929" height="16.000000" stroke="#000000" stroke-opacity="0" stroke-width="1.000000"/>
		<path d="M12.2 2.66C13.54 2.66 14.63 3.71 14.7 5.03L14.7 5.16L14.7 6.55C14.7 6.73 14.61 6.89 14.45 6.98C14.09 7.19 13.86 7.57 13.86 8C13.86 8.42 14.09 8.8 14.45 9.01C14.59 9.08 14.68 9.22 14.7 9.37L14.7 9.44L14.7 10.83C14.7 12.17 13.65 13.26 12.33 13.33L12.2 13.33L3.84 13.33C2.5 13.33 1.41 12.28 1.34 10.96L1.33 10.83L1.33 9.44C1.33 9.26 1.43 9.1 1.58 9.01C1.94 8.8 2.17 8.42 2.17 8C2.17 7.57 1.94 7.19 1.58 6.98C1.45 6.91 1.36 6.78 1.34 6.63L1.33 6.55L1.33 5.16C1.33 3.83 2.38 2.73 3.71 2.66L3.84 2.66L12.2 2.66ZM12.2 3.66L3.84 3.66C3.04 3.66 2.39 4.28 2.34 5.06L2.34 5.16L2.33 6.29L2.41 6.35C2.82 6.7 3.08 7.18 3.15 7.71L3.17 7.86L3.17 8C3.17 8.59 2.93 9.15 2.51 9.55L2.41 9.64L2.33 9.7L2.34 10.83C2.34 11.59 2.9 12.21 3.63 12.32L3.74 12.33L3.84 12.33L12.2 12.33C12.99 12.33 13.65 11.71 13.7 10.93L13.7 10.83L13.7 9.71L13.62 9.64C13.22 9.3 12.95 8.81 12.88 8.27L12.87 8.13L12.86 8C12.86 7.4 13.11 6.84 13.52 6.44L13.62 6.35L13.7 6.28L13.7 5.16C13.7 4.4 13.14 3.78 12.41 3.68L12.3 3.66L12.2 3.66ZM8.02 5.5C8.27 5.5 8.48 5.68 8.52 5.93L8.52 6L8.52 10C8.52 10.27 8.3 10.5 8.02 10.5C7.77 10.5 7.56 10.31 7.52 10.06L7.52 10L7.52 6C7.52 5.72 7.74 5.5 8.02 5.5Z" fill="#68401F" fill-opacity="1.000000" fill-rule="nonzero"/>
		<path d="M14.7 5.03L14.7 5.16L14.7 6.55C14.7 6.73 14.61 6.89 14.45 6.98C14.09 7.19 13.86 7.57 13.86 8C13.86 8.42 14.09 8.8 14.45 9.01C14.59 9.08 14.68 9.22 14.7 9.37L14.7 9.44L14.7 10.83C14.7 12.17 13.65 13.26 12.33 13.33L12.2 13.33L3.84 13.33C2.5 13.33 1.41 12.28 1.34 10.96L1.33 10.83L1.33 9.44C1.33 9.26 1.43 9.1 1.58 9.01C1.94 8.8 2.17 8.42 2.17 8C2.17 7.57 1.94 7.19 1.58 6.98C1.45 6.91 1.36 6.78 1.34 6.63L1.33 6.55L1.33 5.16C1.33 3.83 2.38 2.73 3.71 2.66L3.84 2.66L12.2 2.66C13.54 2.66 14.63 3.71 14.7 5.03ZM3.84 3.66C3.04 3.66 2.39 4.28 2.34 5.06L2.34 5.16L2.33 6.29L2.41 6.35C2.82 6.7 3.08 7.18 3.15 7.71L3.17 7.86L3.17 8C3.17 8.59 2.93 9.15 2.51 9.55L2.41 9.64L2.33 9.7L2.34 10.83C2.34 11.59 2.9 12.21 3.63 12.32L3.74 12.33L3.84 12.33L12.2 12.33C12.99 12.33 13.65 11.71 13.7 10.93L13.7 10.83L13.7 9.71L13.62 9.64C13.22 9.3 12.95 8.81 12.88 8.27L12.87 8.13L12.86 8C12.86 7.4 13.11 6.84 13.52 6.44L13.62 6.35L13.7 6.28L13.7 5.16C13.7 4.4 13.14 3.78 12.41 3.68L12.3 3.66L12.2 3.66L3.84 3.66ZM8.52 5.93L8.52 6L8.52 10C8.52 10.27 8.3 10.5 8.02 10.5C7.77 10.5 7.56 10.31 7.52 10.06L7.52 10L7.52 6C7.52 5.72 7.74 5.5 8.02 5.5C8.27 5.5 8.48 5.68 8.52 5.93Z" stroke="#000000" stroke-opacity="0" stroke-width="1.000000"/>
	</g>
</svg>
