<svg width="24.000000" height="24.000000" viewBox="0 0 24 24" fill="none" xmlns="http://www.w3.org/2000/svg" xmlns:xlink="http://www.w3.org/1999/xlink">
	<desc>
			Created with Pixso.
	</desc>
	<defs>
		<clipPath id="clip98_3156">
			<rect width="24.000000" height="24.000000" fill="white" fill-opacity="0"/>
		</clipPath>
	</defs>
	<g clip-path="url(#clip98_3156)">
		<path d="M0.25 12C0.25 5.51 5.51 0.25 12 0.25C18.48 0.25 23.75 5.51 23.75 12C23.75 18.48 18.48 23.75 12 23.75C5.51 23.75 0.25 18.48 0.25 12ZM1.75 12C1.75 6.33 6.33 1.75 12 1.75C17.66 1.75 22.25 6.33 22.25 12C22.25 17.66 17.66 22.25 12 22.25C6.33 22.25 1.75 17.66 1.75 12Z" fill="#0A59F7" fill-opacity="1.000000" fill-rule="evenodd"/>
		<path d="M12.75 5.81C12.75 5.39 12.42 5.06 12 5.06C11.58 5.06 11.25 5.39 11.25 5.81L11.25 11.24L5.81 11.24C5.39 11.24 5.06 11.57 5.06 11.99C5.06 12.41 5.39 12.74 5.81 12.74L11.25 12.74L11.25 18.18C11.25 18.6 11.58 18.93 12 18.93C12.42 18.93 12.75 18.6 12.75 18.18L12.75 12.74L18.18 12.74C18.6 12.74 18.93 12.41 18.93 11.99C18.93 11.57 18.6 11.24 18.18 11.24L12.75 11.24L12.75 5.81Z" fill="#0A59F7" fill-opacity="1.000000" fill-rule="evenodd"/>
	</g>
</svg>
