<svg width="32.000000" height="32.000000" viewBox="0 0 32 32" fill="none" xmlns="http://www.w3.org/2000/svg" xmlns:xlink="http://www.w3.org/1999/xlink">
	<desc>
			Created with Pixso.
	</desc>
	<defs/>
	<rect rx="16.000000" width="32.000000" height="32.000000" fill="#BFD5FF" fill-opacity="1.000000"/>
	<rect x="4.000000" y="4.000000" width="24.000000" height="24.000000" fill="#000000" fill-opacity="0"/>
	<rect x="4.000000" y="4.000000" width="24.000000" height="24.000000" stroke="#000000" stroke-opacity="0" stroke-width="1.000000"/>
	<path d="M22.25 8C24.25 8 25.89 9.57 25.99 11.55L26 11.75L26 20.25C26 22.25 24.42 23.89 22.44 23.99L22.25 24L9.74 24C7.74 24 6.1 22.42 6 20.44L6 20.25L6 11.75C6 9.74 7.57 8.1 9.55 8L9.74 8L22.25 8ZM12.5 16.25C10.93 16.25 9.6 17.4 9.38 18.96L9.25 19.89L9.24 19.99C9.24 20.36 9.52 20.69 9.89 20.74C10.3 20.79 10.68 20.51 10.74 20.1L10.87 19.16L10.89 19.02C11.06 18.28 11.72 17.75 12.5 17.75C13.31 17.75 14.01 18.35 14.12 19.16L14.25 20.1C14.35 20.45 14.72 20.79 15.1 20.74C15.51 20.68 15.79 20.3 15.74 19.89L15.61 18.96L15.58 18.78C15.29 17.31 14 16.25 12.5 16.25ZM21 16.75L18 16.75L17.89 16.75C17.53 16.8 17.25 17.12 17.25 17.5C17.25 17.87 17.53 18.19 17.89 18.24L18 18.25L21 18.25L21.1 18.24C21.46 18.19 21.75 17.87 21.75 17.5C21.75 17.08 21.41 16.75 21 16.75ZM12.5 11.25C11.25 11.25 10.25 12.25 10.25 13.5C10.25 14.74 11.25 15.75 12.5 15.75C13.74 15.75 14.75 14.74 14.75 13.5C14.75 12.25 13.74 11.25 12.5 11.25ZM22 13.25L18 13.25L17.89 13.25C17.53 13.3 17.25 13.62 17.25 14C17.25 14.37 17.53 14.69 17.89 14.74L18 14.75L22 14.75L22.1 14.74C22.46 14.69 22.75 14.37 22.75 14C22.75 13.58 22.41 13.25 22 13.25Z" fill="#0A59F7" fill-opacity="1.000000" fill-rule="nonzero"/>
	<path d="M25.99 11.55L26 11.75L26 20.25C26 22.25 24.42 23.89 22.44 23.99L22.25 24L9.74 24C7.74 24 6.1 22.42 6 20.44L6 20.25L6 11.75C6 9.74 7.57 8.1 9.55 8L9.74 8L22.25 8C24.25 8 25.89 9.57 25.99 11.55ZM9.38 18.96L9.25 19.89L9.24 19.99C9.24 20.36 9.52 20.69 9.89 20.74C10.3 20.79 10.68 20.51 10.74 20.1L10.87 19.16L10.89 19.02C11.06 18.28 11.72 17.75 12.5 17.75C13.31 17.75 14.01 18.35 14.12 19.16L14.25 20.1C14.35 20.45 14.72 20.79 15.1 20.74C15.51 20.68 15.79 20.3 15.74 19.89L15.61 18.96L15.58 18.78C15.29 17.31 14 16.25 12.5 16.25C10.93 16.25 9.6 17.4 9.38 18.96ZM18 16.75L17.89 16.75C17.53 16.8 17.25 17.12 17.25 17.5C17.25 17.87 17.53 18.19 17.89 18.24L18 18.25L21 18.25L21.1 18.24C21.46 18.19 21.75 17.87 21.75 17.5C21.75 17.08 21.41 16.75 21 16.75L18 16.75ZM10.25 13.5C10.25 14.74 11.25 15.75 12.5 15.75C13.74 15.75 14.75 14.74 14.75 13.5C14.75 12.25 13.74 11.25 12.5 11.25C11.25 11.25 10.25 12.25 10.25 13.5ZM18 13.25L17.89 13.25C17.53 13.3 17.25 13.62 17.25 14C17.25 14.37 17.53 14.69 17.89 14.74L18 14.75L22 14.75L22.1 14.74C22.46 14.69 22.75 14.37 22.75 14C22.75 13.58 22.41 13.25 22 13.25L18 13.25Z" stroke="#000000" stroke-opacity="0" stroke-width="1.000000"/>
</svg>
