<svg width="24.000000" height="24.000000" viewBox="0 0 24 24" fill="none" xmlns="http://www.w3.org/2000/svg" xmlns:xlink="http://www.w3.org/1999/xlink">
	<desc>
			Created with Pixso.
	</desc>
	<defs>
		<clipPath id="clip98_3333">
			<rect width="24.000000" height="24.000000" fill="white" fill-opacity="0"/>
		</clipPath>
	</defs>
	<g clip-path="url(#clip98_3333)">
		<path d="M18.98 11.11L16.85 13.24C16.56 13.54 16.41 13.83 16.41 14.12C16.41 14.42 16.56 14.72 16.85 15.01C16.98 15.13 17.12 15.23 17.27 15.29C17.41 15.35 17.56 15.37 17.73 15.37C17.9 15.37 18.06 15.35 18.2 15.29C18.35 15.23 18.49 15.13 18.62 15.01L20.75 12.87C21.38 12.25 21.86 11.56 22.19 10.8C22.21 10.76 22.23 10.72 22.24 10.67C22.26 10.63 22.28 10.59 22.29 10.55C22.6 9.78 22.75 8.94 22.75 8.06C22.75 7.17 22.6 6.34 22.29 5.57C22.28 5.53 22.26 5.48 22.24 5.44C22.23 5.4 22.21 5.36 22.19 5.32C21.86 4.56 21.38 3.87 20.75 3.24C20.12 2.61 19.43 2.13 18.67 1.8C18.62 1.78 18.59 1.76 18.54 1.75C18.5 1.72 18.46 1.71 18.42 1.69C17.65 1.39 16.81 1.25 15.93 1.25C15.04 1.25 14.21 1.39 13.44 1.69C13.4 1.71 13.36 1.72 13.31 1.75C13.27 1.76 13.23 1.78 13.19 1.8C12.43 2.13 11.74 2.61 11.11 3.24L8.97 5.37C8.85 5.5 8.76 5.63 8.69 5.79C8.64 5.93 8.61 6.09 8.61 6.26C8.61 6.42 8.64 6.58 8.69 6.72C8.76 6.87 8.85 7.01 8.97 7.14C9.1 7.27 9.25 7.36 9.4 7.42C9.54 7.47 9.69 7.51 9.86 7.51C10.03 7.51 10.18 7.47 10.33 7.42C10.48 7.36 10.62 7.27 10.75 7.14L12.88 5.01C13.3 4.58 13.77 4.27 14.27 4.06C14.78 3.85 15.33 3.75 15.93 3.75C16.53 3.75 17.08 3.85 17.59 4.06C18.09 4.27 18.56 4.58 18.98 5.01C19.41 5.43 19.72 5.89 19.93 6.4C20.14 6.9 20.25 7.45 20.25 8.06C20.25 8.66 20.14 9.21 19.93 9.71C19.72 10.22 19.41 10.68 18.98 11.11ZM4.06 14.27C4.27 13.77 4.58 13.3 5.01 12.87L7.14 10.75C7.27 10.62 7.36 10.48 7.42 10.33C7.47 10.18 7.51 10.03 7.51 9.86C7.51 9.69 7.47 9.54 7.42 9.39C7.36 9.25 7.27 9.11 7.14 8.97C6.84 8.68 6.55 8.54 6.26 8.54C5.96 8.54 5.67 8.68 5.37 8.97L3.24 11.11C2.61 11.74 2.13 12.43 1.8 13.19C1.78 13.23 1.76 13.27 1.75 13.32C1.72 13.36 1.71 13.39 1.69 13.44C1.4 14.21 1.25 15.04 1.25 15.93C1.25 16.82 1.4 17.64 1.69 18.42C1.71 18.46 1.72 18.5 1.75 18.54C1.76 18.59 1.78 18.62 1.8 18.66C2.13 19.42 2.61 20.12 3.24 20.75C3.87 21.37 4.56 21.86 5.32 22.19C5.36 22.21 5.4 22.23 5.44 22.24C5.48 22.26 5.53 22.28 5.57 22.29C6.34 22.59 7.17 22.75 8.06 22.75C8.94 22.75 9.78 22.59 10.55 22.29C10.59 22.28 10.63 22.26 10.67 22.24C10.72 22.23 10.76 22.21 10.8 22.19C11.56 21.86 12.25 21.37 12.88 20.75L15.01 18.62C15.14 18.49 15.23 18.35 15.29 18.2C15.35 18.05 15.38 17.9 15.38 17.73C15.38 17.57 15.35 17.41 15.29 17.27C15.23 17.12 15.14 16.98 15.01 16.85C14.72 16.56 14.42 16.4 14.13 16.4C13.83 16.4 13.54 16.56 13.24 16.85L11.11 18.98C10.68 19.4 10.22 19.72 9.71 19.93C9.21 20.14 8.66 20.25 8.06 20.25C7.46 20.25 6.91 20.14 6.4 19.93C5.9 19.72 5.43 19.4 5.01 18.98C4.58 18.56 4.27 18.09 4.06 17.59C3.84 17.08 3.75 16.53 3.75 15.93C3.75 15.33 3.84 14.78 4.06 14.27Z" fill="#105DF7" fill-opacity="1.000000" fill-rule="evenodd"/>
		<path d="M14.17 8.09C14.09 8.14 14.02 8.2 13.95 8.27L8.27 13.95C8.2 14.02 8.14 14.09 8.09 14.17C8.05 14.23 8.02 14.29 7.99 14.36C7.96 14.44 7.94 14.52 7.92 14.6C7.91 14.67 7.9 14.76 7.9 14.83C7.9 14.91 7.91 15 7.92 15.07C7.94 15.15 7.96 15.24 7.99 15.31C8.02 15.37 8.05 15.44 8.09 15.5C8.14 15.58 8.2 15.65 8.27 15.72C8.33 15.78 8.41 15.84 8.48 15.89C8.55 15.93 8.61 15.97 8.68 16C8.76 16.02 8.83 16.05 8.91 16.06C8.99 16.08 9.07 16.09 9.15 16.09C9.23 16.09 9.31 16.08 9.39 16.06C9.46 16.05 9.55 16.02 9.62 16C9.69 15.97 9.76 15.93 9.82 15.89C9.89 15.84 9.96 15.78 10.04 15.72L15.72 10.03C15.79 9.96 15.85 9.89 15.9 9.81C15.94 9.76 15.97 9.69 16 9.62C16.03 9.54 16.05 9.46 16.07 9.38C16.08 9.31 16.09 9.23 16.09 9.15C16.09 9.07 16.08 8.99 16.07 8.91C16.05 8.83 16.03 8.76 16 8.67C15.97 8.61 15.94 8.54 15.9 8.48C15.85 8.4 15.79 8.33 15.72 8.27C15.65 8.2 15.58 8.14 15.5 8.09C15.44 8.05 15.38 8.02 15.31 7.99C15.23 7.96 15.16 7.93 15.08 7.92C15 7.9 14.92 7.89 14.84 7.89C14.76 7.89 14.68 7.9 14.6 7.92C14.52 7.93 14.44 7.96 14.37 7.99C14.3 8.02 14.23 8.05 14.17 8.09Z" fill="#105DF7" fill-opacity="1.000000" fill-rule="evenodd"/>
	</g>
</svg>
