<svg width="32.000000" height="32.000000" viewBox="0 0 32 32" fill="none" xmlns="http://www.w3.org/2000/svg" xmlns:xlink="http://www.w3.org/1999/xlink">
	<desc>
			Created with Pixso.
	</desc>
	<defs/>
	<rect rx="16.000000" width="32.000000" height="32.000000" fill="#BFD5FF" fill-opacity="1.000000"/>
	<g opacity="0.000000">
		<rect x="4.000000" y="4.000000" width="24.000000" height="24.000000" fill="#D8D8D8" fill-opacity="1.000000"/>
		<rect x="4.000000" y="4.000000" width="24.000000" height="24.000000" stroke="#000000" stroke-opacity="0" stroke-width="1.000000"/>
	</g>
	<path d="M7.36 17.38L11.64 19.21C12.05 19.39 12.49 19.48 12.94 19.48C13.81 19.48 14.63 19.11 15.24 18.51L15.24 25.49L9.18 22.9C8.08 22.43 7.36 21.35 7.36 20.14L7.36 17.38ZM24.63 17.39L24.63 20.14C24.63 21.35 23.91 22.43 22.81 22.9L16.75 25.49L16.75 18.51C17.36 19.11 18.18 19.48 19.05 19.48C19.5 19.48 19.94 19.39 20.35 19.21L24.63 17.39ZM25.04 10.74L26.4 12.59C26.72 13.04 26.83 13.6 26.68 14.14C26.53 14.67 26.15 15.1 25.64 15.32L24.63 15.75L19.76 17.83C19.53 17.93 19.29 17.98 19.05 17.98C18.49 17.98 17.94 17.72 17.59 17.24L15.99 15.05L14.4 17.24C14.05 17.71 13.5 17.98 12.94 17.98C12.7 17.98 12.46 17.93 12.23 17.83L6.34 15.32C5.83 15.1 5.46 14.67 5.31 14.14C5.16 13.6 5.27 13.04 5.59 12.59L6.95 10.74L15.24 14.28L15.99 14.62L16.74 14.28L25.04 10.74ZM14.82 6.74C15.56 6.42 16.42 6.42 17.17 6.74L23.88 9.6L15.99 12.97L8.11 9.6L14.82 6.74Z" fill="#0A59F7" fill-opacity="1.000000" fill-rule="evenodd"/>
	<path d="M11.64 19.21C12.05 19.39 12.49 19.48 12.94 19.48C13.81 19.48 14.63 19.11 15.24 18.51L15.24 25.49L9.18 22.9C8.08 22.43 7.36 21.35 7.36 20.14L7.36 17.38L11.64 19.21ZM24.63 20.14C24.63 21.35 23.91 22.43 22.81 22.9L16.75 25.49L16.75 18.51C17.36 19.11 18.18 19.48 19.05 19.48C19.5 19.48 19.94 19.39 20.35 19.21L24.63 17.39L24.63 20.14ZM26.4 12.59C26.72 13.04 26.83 13.6 26.68 14.14C26.53 14.67 26.15 15.1 25.64 15.32L24.63 15.75L19.76 17.83C19.53 17.93 19.29 17.98 19.05 17.98C18.49 17.98 17.94 17.72 17.59 17.24L15.99 15.05L14.4 17.24C14.05 17.71 13.5 17.98 12.94 17.98C12.7 17.98 12.46 17.93 12.23 17.83L6.34 15.32C5.83 15.1 5.46 14.67 5.31 14.14C5.16 13.6 5.27 13.04 5.59 12.59L6.95 10.74L15.24 14.28L15.99 14.62L16.74 14.28L25.04 10.74L26.4 12.59ZM17.17 6.74L23.88 9.6L15.99 12.97L8.11 9.6L14.82 6.74C15.56 6.42 16.42 6.42 17.17 6.74Z" stroke="#000000" stroke-opacity="0" stroke-width="1.000000"/>
</svg>
