<svg width="16.000000" height="16.000000" viewBox="0 0 16 16" fill="none" xmlns="http://www.w3.org/2000/svg" xmlns:xlink="http://www.w3.org/1999/xlink">
	<desc>
			Created with Pixso.
	</desc>
	<defs>
		<clipPath id="clip84_1654">
			<rect width="16.000000" height="16.000000" fill="white" fill-opacity="0"/>
		</clipPath>
		<clipPath id="clip84_1325">
			<rect width="16.000000" height="16.000000" fill="white" fill-opacity="0"/>
		</clipPath>
	</defs>
	<g clip-path="url(#clip84_1325)">
		<g clip-path="url(#clip84_1654)">
			<g opacity="0.000000">
				<rect width="16.000000" height="16.000000" fill="#D8D8D8" fill-opacity="1.000000"/>
				<rect width="16.000000" height="16.000000" stroke="#000000" stroke-opacity="0" stroke-width="1.000000"/>
			</g>
			<path d="M9.18 1.33C9.64 1.33 10.04 1.64 10.16 2.08L10.44 3.12C10.49 3.15 10.55 3.18 10.6 3.21L10.83 3.35C10.89 3.38 10.94 3.41 10.99 3.44L12.03 3.16C12.48 3.04 12.94 3.24 13.17 3.63L14.36 5.69C14.47 5.88 14.52 6.11 14.49 6.33C14.46 6.55 14.36 6.76 14.2 6.92L13.44 7.68C13.45 7.74 13.45 7.81 13.45 7.87L13.46 8L13.45 8.07C13.45 8.15 13.45 8.25 13.44 8.32L14.2 9.07C14.36 9.23 14.46 9.44 14.49 9.66C14.52 9.88 14.47 10.11 14.36 10.3L13.17 12.36C13.01 12.65 12.7 12.84 12.36 12.86C12.25 12.87 12.14 12.86 12.03 12.83L10.99 12.55C10.94 12.58 10.89 12.61 10.83 12.64L10.59 12.78C10.54 12.81 10.49 12.84 10.44 12.87L10.16 13.91C10.04 14.35 9.64 14.66 9.18 14.66L6.81 14.66C6.35 14.66 5.95 14.35 5.83 13.91L5.54 12.87C5.49 12.84 5.45 12.81 5.4 12.78L5.15 12.64C5.1 12.61 5.05 12.58 5 12.55L3.96 12.83C3.85 12.86 3.74 12.87 3.62 12.86C3.29 12.84 2.98 12.65 2.81 12.36L1.63 10.3C1.61 10.28 1.59 10.22 1.58 10.19C1.51 10.03 1.48 9.87 1.5 9.71C1.52 9.49 1.63 9.23 1.79 9.07L2.54 8.32C2.54 8.25 2.54 8.18 2.54 8.12L2.53 8C2.53 7.99 2.53 7.91 2.53 7.91C2.54 7.82 2.54 7.75 2.54 7.68L1.79 6.92C1.63 6.76 1.53 6.55 1.5 6.33C1.49 6.17 1.51 5.96 1.59 5.79C1.59 5.78 1.6 5.73 1.63 5.69L2.81 3.63C3.04 3.24 3.51 3.04 3.96 3.16L5 3.44C5.05 3.41 5.1 3.38 5.15 3.35L5.39 3.21C5.44 3.18 5.49 3.15 5.54 3.12L5.83 2.08C5.95 1.64 6.35 1.33 6.81 1.33L9.18 1.33ZM7.99 5C6.34 5 4.99 6.34 4.99 8C4.99 9.66 6.34 11 7.99 11C9.65 11 10.99 9.66 10.99 8C10.99 6.34 9.65 5 7.99 5ZM7.99 6C9.1 6 9.99 6.89 9.99 8C9.99 9.1 9.1 10 7.99 10C6.89 10 5.99 9.1 5.99 8C5.99 6.89 6.89 6 7.99 6Z" fill="#191919" fill-opacity="1.000000" fill-rule="evenodd"/>
			<path d="M10.16 2.08L10.44 3.12C10.49 3.15 10.55 3.18 10.6 3.21L10.83 3.35C10.89 3.38 10.94 3.41 10.99 3.44L12.03 3.16C12.48 3.04 12.94 3.24 13.17 3.63L14.36 5.69C14.47 5.88 14.52 6.11 14.49 6.33C14.46 6.55 14.36 6.76 14.2 6.92L13.44 7.68C13.45 7.74 13.45 7.81 13.45 7.87L13.46 8L13.45 8.07C13.45 8.15 13.45 8.25 13.44 8.32L14.2 9.07C14.36 9.23 14.46 9.44 14.49 9.66C14.52 9.88 14.47 10.11 14.36 10.3L13.17 12.36C13.01 12.65 12.7 12.84 12.36 12.86C12.25 12.87 12.14 12.86 12.03 12.83L10.99 12.55C10.94 12.58 10.89 12.61 10.83 12.64L10.59 12.78C10.54 12.81 10.49 12.84 10.44 12.87L10.16 13.91C10.04 14.35 9.64 14.66 9.18 14.66L6.81 14.66C6.35 14.66 5.95 14.35 5.83 13.91L5.54 12.87C5.49 12.84 5.45 12.81 5.4 12.78L5.15 12.64C5.1 12.61 5.05 12.58 5 12.55L3.96 12.83C3.85 12.86 3.74 12.87 3.62 12.86C3.29 12.84 2.98 12.65 2.81 12.36L1.63 10.3C1.61 10.28 1.59 10.22 1.58 10.19C1.51 10.03 1.48 9.87 1.5 9.71C1.52 9.49 1.63 9.23 1.79 9.07L2.54 8.32C2.54 8.25 2.54 8.18 2.54 8.12L2.53 8C2.53 7.99 2.53 7.91 2.53 7.91C2.54 7.82 2.54 7.75 2.54 7.68L1.79 6.92C1.63 6.76 1.53 6.55 1.5 6.33C1.49 6.17 1.51 5.96 1.59 5.79C1.59 5.78 1.6 5.73 1.63 5.69L2.81 3.63C3.04 3.24 3.51 3.04 3.96 3.16L5 3.44C5.05 3.41 5.1 3.38 5.15 3.35L5.39 3.21C5.44 3.18 5.49 3.15 5.54 3.12L5.83 2.08C5.95 1.64 6.35 1.33 6.81 1.33L9.18 1.33C9.64 1.33 10.04 1.64 10.16 2.08ZM4.99 8C4.99 9.66 6.34 11 7.99 11C9.65 11 10.99 9.66 10.99 8C10.99 6.34 9.65 5 7.99 5C6.34 5 4.99 6.34 4.99 8ZM9.99 8C9.99 9.1 9.1 10 7.99 10C6.89 10 5.99 9.1 5.99 8C5.99 6.89 6.89 6 7.99 6C9.1 6 9.99 6.89 9.99 8Z" stroke="#000000" stroke-opacity="0" stroke-width="1.000000"/>
		</g>
	</g>
</svg>
