<svg width="32.000000" height="32.000000" viewBox="0 0 32 32" fill="none" xmlns="http://www.w3.org/2000/svg" xmlns:xlink="http://www.w3.org/1999/xlink">
	<desc>
			Created with Pixso.
	</desc>
	<defs/>
	<circle cx="16.000000" cy="16.000000" r="16.000000" fill="#BFD5FF" fill-opacity="1.000000"/>
	<path d="M16.31 8C19.36 8 22.11 9.65 23.57 12.26C24.11 13.22 24.46 14.29 24.58 15.4L24.59 15.52C24.62 15.66 24.63 15.79 24.63 15.93L24.63 16.8C24.63 18.86 22.96 20.53 20.9 20.53C20.55 20.53 20.27 20.25 20.27 19.91L20.27 15.54C20.27 14.55 21.07 13.75 22.06 13.75L22.45 13.75C22.61 13.75 22.77 13.77 22.92 13.8C22.8 13.48 22.65 13.17 22.48 12.87C21.24 10.65 18.9 9.25 16.31 9.25C13.29 9.25 10.71 11.14 9.7 13.81C9.85 13.77 10.01 13.76 10.17 13.76L10.56 13.76C11.55 13.76 12.35 14.56 12.35 15.55L12.35 19.91C12.35 20.26 12.07 20.54 11.73 20.54C11.3 20.54 10.88 20.46 10.5 20.33C11.43 21.69 12.84 22.7 14.48 23.14C14.45 23.01 14.44 22.89 14.44 22.75C14.44 21.72 15.28 20.88 16.31 20.88C17.35 20.88 18.19 21.72 18.19 22.75C18.19 23.79 17.35 24.63 16.31 24.63C12.22 24.63 8.81 21.67 8.12 17.77C8.04 17.46 8 17.14 8 16.8L8 15.93C8 15.8 8.01 15.67 8.03 15.54C8.42 11.31 11.98 8 16.31 8Z" fill="#0A59F7" fill-opacity="1.000000" fill-rule="evenodd"/>
	<path d="M23.57 12.26C24.11 13.22 24.46 14.29 24.58 15.4L24.59 15.52C24.62 15.66 24.63 15.79 24.63 15.93L24.63 16.8C24.63 18.86 22.96 20.53 20.9 20.53C20.55 20.53 20.27 20.25 20.27 19.91L20.27 15.54C20.27 14.55 21.07 13.75 22.06 13.75L22.45 13.75C22.61 13.75 22.77 13.77 22.92 13.8C22.8 13.48 22.65 13.17 22.48 12.87C21.24 10.65 18.9 9.25 16.31 9.25C13.29 9.25 10.71 11.14 9.7 13.81C9.85 13.77 10.01 13.76 10.17 13.76L10.56 13.76C11.55 13.76 12.35 14.56 12.35 15.55L12.35 19.91C12.35 20.26 12.07 20.54 11.73 20.54C11.3 20.54 10.88 20.46 10.5 20.33C11.43 21.69 12.84 22.7 14.48 23.14C14.45 23.01 14.44 22.89 14.44 22.75C14.44 21.72 15.28 20.88 16.31 20.88C17.35 20.88 18.19 21.72 18.19 22.75C18.19 23.79 17.35 24.63 16.31 24.63C12.22 24.63 8.81 21.67 8.12 17.77C8.04 17.46 8 17.14 8 16.8L8 15.93C8 15.8 8.01 15.67 8.03 15.54C8.42 11.31 11.98 8 16.31 8C19.36 8 22.11 9.65 23.57 12.26Z" stroke="#000000" stroke-opacity="0" stroke-width="1.000000"/>
</svg>
