<svg width="32.000000" height="32.000000" viewBox="0 0 32 32" fill="none" xmlns="http://www.w3.org/2000/svg" xmlns:xlink="http://www.w3.org/1999/xlink">
	<desc>
			Created with Pixso.
	</desc>
	<defs/>
	<rect rx="16.000000" width="32.000000" height="32.000000" fill="#BFD5FF" fill-opacity="1.000000"/>
	<g opacity="0.000000">
		<rect x="4.000000" y="4.000000" width="24.000000" height="24.000000" fill="#D8D8D8" fill-opacity="1.000000"/>
		<rect x="4.000000" y="4.000000" width="24.000000" height="24.000000" stroke="#000000" stroke-opacity="0" stroke-width="1.000000"/>
	</g>
	<path d="M21.01 6C22.66 6 24.01 7.34 24.01 9L24.01 20.22C24.01 21.87 22.66 23.22 21.01 23.22L9.5 23.22C9.61 23.94 10.23 24.49 10.98 24.49L23.25 24.49C23.67 24.49 24 24.83 24 25.24C24 25.66 23.67 25.99 23.25 25.99L10.98 25.99C9.33 25.99 7.98 24.65 7.98 22.99L7.99 9C7.99 7.34 9.33 6 10.99 6L21.01 6ZM20.37 7.5L14.62 7.5L14.62 13C14.62 13.11 14.67 13.22 14.76 13.29C14.89 13.35 15.12 13.38 15.23 13.29L17.49 11.48L19.75 13.29C19.82 13.34 19.9 13.37 19.98 13.37C20.04 13.37 20.1 13.36 20.15 13.33C20.28 13.27 20.36 13.14 20.36 13L20.37 7.5Z" fill="#0A59F7" fill-opacity="1.000000" fill-rule="evenodd"/>
	<path d="M24.01 9L24.01 20.22C24.01 21.87 22.66 23.22 21.01 23.22L9.5 23.22C9.61 23.94 10.23 24.49 10.98 24.49L23.25 24.49C23.67 24.49 24 24.83 24 25.24C24 25.66 23.67 25.99 23.25 25.99L10.98 25.99C9.33 25.99 7.98 24.65 7.98 22.99L7.99 9C7.99 7.34 9.33 6 10.99 6L21.01 6C22.66 6 24.01 7.34 24.01 9ZM14.62 7.5L14.62 13C14.62 13.11 14.67 13.22 14.76 13.29C14.89 13.35 15.12 13.38 15.23 13.29L17.49 11.48L19.75 13.29C19.82 13.34 19.9 13.37 19.98 13.37C20.04 13.37 20.1 13.36 20.15 13.33C20.28 13.27 20.36 13.14 20.36 13L20.37 7.5L14.62 7.5Z" stroke="#000000" stroke-opacity="0" stroke-width="1.000000"/>
</svg>
