<svg width="56.000000" height="68.000000" viewBox="0 0 28 34" fill="none" xmlns="http://www.w3.org/2000/svg"
>
    <desc>
        Created with Pixso.
    </desc>
    <defs/>
    <circle cx="14.000000" cy="14.000000" r="14.000000" fill="#FFFFFF" fill-opacity="1.000000"/>
    <circle cx="14.000000" cy="14.000000" r="12.000000" fill="#0A59F7" fill-opacity="1.000000"/>
    <path d="M13.71 8.48L8.31 8.48L8.31 11L9.29 11L9.29 9.35L18.7 9.35L18.7 11L19.68 11L19.68 8.48L14.98 8.48Q14.48 7.71 14.05 6.9L13.01 7.33Q13.39 7.93 13.71 8.48ZM16.4 18.66L15.63 18.66L15.8 19.53L16.67 19.53Q17.17 19.53 17.66 19.47Q17.98 19.36 18.21 19.15Q18.25 19.11 18.28 19.07Q18.4 18.93 18.48 18.76Q18.59 18.32 18.59 17.89L18.59 14.56L20.34 14.56L20.34 13.62L18.53 13.62L18.92 12.9Q16.57 12.2 14.28 11.49L14.32 11.38L18.21 11.38L18.21 10.5L14.48 10.5L14.54 9.63L13.51 9.63Q13.45 10.06 13.45 10.5L9.78 10.5L9.78 11.38L13.17 11.38Q13.05 11.57 12.88 11.7Q12.76 11.8 12.62 11.87Q12.4 12.02 12.15 12.13Q11.93 12.23 11.7 12.3Q11.21 12.47 10.72 12.58Q9.78 12.75 8.86 12.9L9.12 13.62L7.65 13.62L7.65 14.56L17.55 14.56L17.55 17.72Q17.55 18 17.5 18.21Q17.44 18.38 17.33 18.43Q17.33 18.43 17.33 18.43Q17.19 18.59 17.03 18.6Q17.02 18.6 17.01 18.6Q16.67 18.66 16.4 18.66ZM18.32 13.62L9.35 13.62Q10.66 13.45 11.96 13.07Q12.53 12.9 13.01 12.64Q13.45 12.42 13.77 12.15Q16.03 12.85 18.32 13.62ZM9.4 15.54L9.4 19.15L10.38 19.15L10.38 18.43L15.42 18.43L15.42 15.54L9.4 15.54ZM10.38 16.35L14.43 16.35L14.43 17.61L10.38 17.61L10.38 16.35Z"
          fill="#FFFFFF" fill-opacity="1.000000" fill-rule="evenodd"/>
    <path d="M9 27L19 27L15 32.5L14 34L13 32.5L9 27Z" fill="#FFFFFF" fill-opacity="1.000000" fill-rule="evenodd"/>
</svg>
