<svg width="12.000000" height="12.000000" viewBox="0 0 12 12" fill="none" xmlns="http://www.w3.org/2000/svg" xmlns:xlink="http://www.w3.org/1999/xlink">
	<desc>
			Created with Pixso.
	</desc>
	<defs>
		<clipPath id="clip86_3172">
			<rect width="16.000000" height="16.000000" transform="translate(-2.000000 -2.000000)" fill="white" fill-opacity="0"/>
		</clipPath>
		<clipPath id="clip86_3165">
			<rect width="12.000000" height="12.000000" fill="white" fill-opacity="0"/>
		</clipPath>
	</defs>
	<g clip-path="url(#clip86_3165)">
		<g clip-path="url(#clip86_3172)">
			<g opacity="0.000000">
				<rect x="-2.000000" y="-2.000000" width="16.000000" height="16.000000" fill="#D8D8D8" fill-opacity="1.000000"/>
				<rect x="-2.000000" y="-2.000000" width="16.000000" height="16.000000" stroke="#000000" stroke-opacity="0" stroke-width="1.000000"/>
			</g>
			<path d="M1.8 0.86L5.99 5.05L10.19 0.86C10.45 0.6 10.87 0.6 11.13 0.86C11.39 1.12 11.39 1.54 11.13 1.8L6.94 5.99L11.13 10.19C11.39 10.45 11.39 10.87 11.13 11.13C11 11.26 10.83 11.33 10.66 11.33C10.49 11.33 10.32 11.26 10.19 11.13L5.99 6.94L1.8 11.13C1.67 11.26 1.5 11.33 1.33 11.33C1.16 11.33 0.99 11.26 0.86 11.13C0.6 10.87 0.6 10.45 0.86 10.19L5.05 5.99L0.86 1.8C0.6 1.54 0.6 1.12 0.86 0.86C1.12 0.6 1.54 0.6 1.8 0.86Z" fill="#FFFFFF" fill-opacity="1.000000" fill-rule="evenodd"/>
		</g>
	</g>
</svg>
