<svg width="24.000000" height="24.000000" viewBox="0 0 24 24" fill="none" xmlns="http://www.w3.org/2000/svg" xmlns:xlink="http://www.w3.org/1999/xlink">
	<desc>
			Created with Pixso.
	</desc>
	<defs>
		<clipPath id="clip86_3194">
			<rect width="24.000000" height="24.000000" fill="white" fill-opacity="0"/>
		</clipPath>
		<clipPath id="clip86_3185">
			<rect width="24.000000" height="24.000000" fill="white" fill-opacity="0"/>
		</clipPath>
	</defs>
	<g clip-path="url(#clip86_3185)">
		<g clip-path="url(#clip86_3194)">
			<g opacity="0.000000">
				<rect width="24.000000" height="24.000000" fill="#D8D8D8" fill-opacity="1.000000"/>
				<rect width="24.000000" height="24.000000" stroke="#000000" stroke-opacity="0" stroke-width="1.000000"/>
			</g>
			<path d="M16.06 15.01C16.35 15.31 16.35 15.78 16.06 16.07C15.92 16.22 15.72 16.29 15.53 16.29C15.34 16.29 15.15 16.22 15 16.07L12 13.07L8.99 16.07C8.84 16.22 8.65 16.29 8.46 16.29C8.27 16.29 8.08 16.22 7.93 16.07C7.64 15.78 7.64 15.31 7.93 15.01L10.93 12.01L7.93 9C7.64 8.71 7.64 8.23 7.93 7.94C8.22 7.65 8.7 7.65 8.99 7.94L12 10.95L15 7.94C15.29 7.65 15.77 7.65 16.06 7.94C16.35 8.23 16.35 8.71 16.06 9L13.06 12.01L16.06 15.01ZM12 2C6.47 2 2 6.47 2 12C2 17.52 6.47 22 12 22C17.52 22 22 17.52 22 12C22 6.47 17.52 2 12 2Z" fill="#000000" fill-opacity="0.600000" fill-rule="evenodd"/>
		</g>
	</g>
</svg>
