<svg width="14.000000" height="14.000000" viewBox="0 0 14 14" fill="none" xmlns="http://www.w3.org/2000/svg" xmlns:xlink="http://www.w3.org/1999/xlink">
	<desc>
			Created with Pixso.
	</desc>
	<defs>
		<clipPath id="clip32_573">
			<rect width="14.000000" height="14.000000" fill="white" fill-opacity="0"/>
		</clipPath>
	</defs>
	<g clip-path="url(#clip32_573)">
		<rect width="14.000000" height="14.000000" fill="#FFFFFF" fill-opacity="0"/>
		<path d="M0 6.99C0 5.9 -0.01 4.8 0 3.71C-0.01 3.18 0.06 2.65 0.19 2.14C0.48 1.05 1.18 0.41 2.27 0.16C2.81 0.04 3.37 -0.01 3.92 6.1e-5C6.02 6.1e-5 8.12 6.1e-5 10.22 6.1e-5C10.74 -0.01 11.27 0.05 11.79 0.18C12.9 0.45 13.58 1.16 13.83 2.27C13.95 2.8 14 3.33 13.99 3.87C13.99 5.99 13.99 8.11 13.99 10.23C14 10.75 13.94 11.28 13.81 11.79C13.54 12.91 12.83 13.57 11.72 13.83C11.17 13.95 10.62 14 10.06 13.99C7.97 13.99 5.88 13.99 3.8 13.99C3.26 14 2.73 13.94 2.21 13.81C1.09 13.54 0.41 12.83 0.16 11.71C0.03 11.14 0 10.57 0 10C0 9 0 7.99 0 6.99Z" fill="#FFFFFF" fill-opacity="0" fill-rule="evenodd"/>
		<circle cx="7.000000" cy="7.000000" r="7.000000" fill="#FFFFFF" fill-opacity="0"/>
		<path d="M12.53 10.15C12.53 10.99 11.86 11.66 11.02 11.66L4.42 11.66C3.59 11.66 2.91 10.99 2.91 10.15L2.91 2.09C2.91 1.26 3.59 0.58 4.42 0.58L9.44 0.58L9.44 2.64C9.44 3.2 9.89 3.65 10.44 3.65L12.53 3.65L12.53 10.15Z" fill="#000000" fill-opacity="0" fill-rule="nonzero"/>
		<path d="M11.02 11.66L4.42 11.66C3.59 11.66 2.91 10.99 2.91 10.15L2.91 2.09C2.91 1.26 3.59 0.58 4.42 0.58L9.44 0.58L9.44 2.64C9.44 3.2 9.89 3.65 10.44 3.65L12.53 3.65L12.53 10.15C12.53 10.99 11.86 11.66 11.02 11.66Z" stroke="#000000" stroke-opacity="0.600000" stroke-width="1.500000" stroke-linejoin="round"/>
		<mask id="mask32_580" mask-type="alpha" maskUnits="userSpaceOnUse" x="0.000000" y="0.000000" width="14.000000" height="14.000000">
			<path d="M0 0L8.37 0L8.37 2.97C8.37 3.94 9.15 4.72 10.12 4.72L14 4.72L14 14L0 14L0 0Z" fill="#C4C4C4" fill-opacity="1.000000" fill-rule="evenodd"/>
		</mask>
		<g mask="url(#mask32_580)">
			<path d="M9.44 0.58L9.44 2.64C9.44 3.2 9.89 3.65 10.46 3.65L12.54 3.65L12.54 10.15C12.54 10.98 11.85 11.66 11 11.66L4.44 11.66C3.6 11.66 2.91 10.98 2.91 10.15L2.91 2.09C2.91 1.26 3.6 0.58 4.44 0.58L9.44 0.58Z" fill="#FFFFFF" fill-opacity="0" fill-rule="evenodd"/>
			<path d="M12.54 10.15C12.54 10.98 11.85 11.66 11 11.66L4.44 11.66C3.6 11.66 2.91 10.98 2.91 10.15L2.91 2.09C2.91 1.26 3.6 0.58 4.44 0.58L9.44 0.58L9.44 2.64C9.44 3.2 9.89 3.65 10.46 3.65L12.54 3.65L12.54 10.15Z" fill="#000000" fill-opacity="0" fill-rule="nonzero"/>
			<path d="M11 11.66L4.44 11.66C3.6 11.66 2.91 10.98 2.91 10.15L2.91 2.09C2.91 1.26 3.6 0.58 4.44 0.58L9.44 0.58L9.44 2.64C9.44 3.2 9.89 3.65 10.46 3.65L12.54 3.65L12.54 10.15C12.54 10.98 11.85 11.66 11 11.66Z" stroke="#FFFFFF" stroke-opacity="0" stroke-width="1.500000" stroke-linejoin="round"/>
		</g>
		<path d="M9.44 0.58L9.44 2.64C9.44 3.2 9.89 3.65 10.46 3.65L12.54 3.65L12.54 3.6L9.51 0.58L9.44 0.58Z" fill="#FFFFFF" fill-opacity="0" fill-rule="evenodd"/>
		<path d="M9.44 2.64C9.44 3.2 9.89 3.65 10.46 3.65L12.54 3.65L12.54 3.6L9.51 0.58L9.44 0.58L9.44 2.64Z" fill="#000000" fill-opacity="0" fill-rule="nonzero"/>
		<path d="M10.46 3.65L12.54 3.65L12.54 3.6L9.51 0.58L9.44 0.58L9.44 2.64C9.44 3.2 9.89 3.65 10.46 3.65Z" stroke="#000000" stroke-opacity="0.600000" stroke-width="1.500000" stroke-linejoin="round"/>
		<path d="M0.43 3.98L0.41 3.96C0.41 3.54 0.74 3.21 1.16 3.21C1.58 3.21 1.91 3.54 1.91 3.96L1.89 3.98L0.43 3.98ZM9.35 12.68L9.37 12.66C9.79 12.66 10.12 12.99 10.12 13.41C10.12 13.83 9.79 14.16 9.37 14.16L9.35 14.14L9.35 12.68Z" fill="#000000" fill-opacity="0" fill-rule="nonzero"/>
		<path d="M1.16 3.96L1.16 10.33C1.16 12.03 2.54 13.41 4.24 13.41L9.37 13.41" stroke="#000000" stroke-opacity="0.600000" stroke-width="1.500000" stroke-linecap="round"/>
	</g>
</svg>
