<svg width="24.000000" height="24.000000" viewBox="0 0 24 24" fill="none" xmlns="http://www.w3.org/2000/svg" xmlns:xlink="http://www.w3.org/1999/xlink">
	<desc>
			Created with Pixso.
	</desc>
	<defs>
		<clipPath id="clip86_3188">
			<rect width="24.000000" height="24.000000" fill="white" fill-opacity="0"/>
		</clipPath>
	</defs>
	<g clip-path="url(#clip86_3188)">
		<g opacity="0.000000">
			<rect width="24.000000" height="24.000000" fill="#D8D8D8" fill-opacity="1.000000"/>
			<rect width="24.000000" height="24.000000" stroke="#000000" stroke-opacity="0" stroke-width="1.000000"/>
		</g>
		<path d="M16.28 4.14L9.85 10.58C9.77 10.65 9.71 10.74 9.66 10.84L8.89 12.37L7.62 15.07C7.44 15.45 7.52 15.9 7.82 16.2C8.01 16.39 8.27 16.49 8.53 16.49C8.67 16.49 8.81 16.46 8.94 16.4L11.44 15.26L13.1 14.5C13.21 14.45 13.31 14.38 13.4 14.3L19.78 7.91L19.78 17.64C19.78 19.3 18.43 20.64 16.78 20.64L6.28 20.64C4.62 20.64 3.28 19.3 3.28 17.64L3.28 7.14C3.28 5.49 4.62 4.14 6.28 4.14L16.28 4.14ZM16.81 5.03L19.03 7.25L12.69 13.59L11.03 14.35L8.53 15.49L9.79 12.82L10.55 11.28L16.81 5.03ZM18.03 3.81C18.64 3.2 19.62 3.19 20.23 3.79C20.86 4.4 20.87 5.41 20.25 6.03L20.09 6.19L17.87 3.97L18.03 3.81Z" fill="#000000" fill-opacity="0.600000" fill-rule="evenodd"/>
	</g>
</svg>
