<svg width="24.000000" height="28.000000" viewBox="0 0 24 28" fill="none" xmlns="http://www.w3.org/2000/svg" xmlns:xlink="http://www.w3.org/1999/xlink">
	<desc>
			Created with Pixso.
	</desc>
	<defs/>
	<path d="M0 5L12 0L24 5L24 14L24 23L12 28L0 23L0 14L0 5Z" fill="#000000" fill-opacity="0.400000" fill-rule="evenodd"/>
	<path d="M13.31 7.22L12.16 7.22L12.16 12.15L13.31 12.15L13.31 11.49L14.29 12.04Q14.84 10.95 15.27 9.8L18.34 9.8L18.34 8.65L15.72 8.65Q15.87 8.1 16.04 7.5L14.89 7.22Q14.53 8.67 13.95 10.04Q13.66 10.72 13.31 11.38L13.31 7.22ZM6.52 18.38L5.65 18.38L5.92 19.7L6.86 19.7Q7.23 19.7 7.67 19.58Q7.89 19.53 8.06 19.42Q8.07 19.41 8.07 19.41Q8.27 19.26 8.38 18.98Q8.44 18.6 8.44 18.21L8.44 14.33L9.92 13.79L9.81 13.07L9.64 12.53L8.44 12.96L8.44 10.95L9.7 10.95L9.7 9.74L8.44 9.74L8.44 7.45L7.29 7.45L7.29 9.74L5.88 9.74L5.88 10.95L7.29 10.95L7.29 13.41Q6.37 13.73 5.48 14L5.82 15.26L7.29 14.71L7.29 17.72Q7.29 17.89 7.23 18.1Q7.23 18.15 7.21 18.19Q7.19 18.24 7.12 18.27Q7.11 18.28 7.1 18.29Q7.05 18.32 6.97 18.32Q6.75 18.38 6.52 18.38ZM10.02 7.77L10.02 11.93L11.17 11.93L11.17 7.77L10.02 7.77ZM16.04 9.85L15.21 10.55L16.92 12.42L17.79 11.66Q16.92 10.72 16.04 9.85ZM10.3 12.53L10.3 16.91L11.51 16.91L11.51 13.73L15.82 13.73L15.82 16.95L17.02 16.95L17.02 12.53L10.3 12.53ZM9.04 18.66L9.59 19.85Q9.74 19.8 9.89 19.75Q10.99 19.38 12 18.76Q12.14 18.67 12.29 18.57Q13.02 18.06 13.58 17.29L13.58 18.06Q13.52 18.38 13.63 18.76Q13.69 18.93 13.86 19.09Q14.02 19.3 14.23 19.36L14.23 19.36Q14.63 19.47 14.95 19.47L16.53 19.47Q16.92 19.47 17.36 19.36Q17.39 19.35 17.43 19.34Q17.65 19.27 17.85 19.09Q17.96 18.93 18.07 18.7Q18.13 18.32 18.17 17.95Q18.17 17.18 18.23 16.4L17.13 16.2Q17.08 16.85 17.08 17.5Q17.08 17.72 17.02 17.95Q16.96 18.06 16.92 18.15Q16.81 18.21 16.64 18.27Q16.46 18.31 16.29 18.28Q16.25 18.28 16.21 18.27L15.44 18.27Q15.21 18.32 15.06 18.27Q14.95 18.27 14.84 18.15Q14.78 18.1 14.73 18L14.73 15.75L14.12 15.75Q14.23 14.99 14.29 14.17L13.09 14.17Q13.03 15.05 12.88 15.86Q12.75 16.28 12.52 16.64Q12.36 16.89 12.16 17.12Q11.71 17.5 11.17 17.83Q10.49 18.15 9.78 18.41Q9.41 18.54 9.04 18.66Z" fill="#FFFFFF" fill-opacity="1.000000" fill-rule="evenodd"/>
</svg>
