<svg width="24.000000" height="24.000000" viewBox="0 0 24 24" fill="none" xmlns="http://www.w3.org/2000/svg" xmlns:xlink="http://www.w3.org/1999/xlink">
	<desc>
			Created with Pixso.
	</desc>
	<defs>
		<clipPath id="clip86_3189">
			<rect width="24.000000" height="24.000000" fill="white" fill-opacity="0"/>
		</clipPath>
		<clipPath id="clip86_3182">
			<rect width="24.000000" height="24.000000" fill="white" fill-opacity="0"/>
		</clipPath>
	</defs>
	<g clip-path="url(#clip86_3182)">
		<g clip-path="url(#clip86_3189)">
			<g opacity="0.000000">
				<rect width="24.000000" height="24.000000" fill="#D8D8D8" fill-opacity="1.000000"/>
				<rect width="24.000000" height="24.000000" stroke="#000000" stroke-opacity="0" stroke-width="1.000000"/>
			</g>
			<path d="M12 2C17.51 2 22 6.48 22 12C22 17.51 17.51 22 12 22C6.48 22 2 17.51 2 12C2 6.48 6.48 2 12 2ZM15.01 5.86C14.66 5.64 14.2 5.75 13.98 6.1L12 9.32L10.01 6.1C9.79 5.75 9.33 5.64 8.98 5.86C8.63 6.07 8.52 6.54 8.73 6.89L10.81 10.24L8.5 10.24C8.08 10.24 7.75 10.58 7.75 10.99C7.75 11.41 8.08 11.74 8.5 11.74L11.25 11.74L11.25 12.74L8.5 12.74C8.08 12.74 7.75 13.08 7.75 13.49C7.75 13.91 8.08 14.24 8.5 14.24L11.25 14.24L11.25 17.49C11.25 17.91 11.58 18.24 12 18.24C12.41 18.24 12.75 17.91 12.75 17.49L12.75 14.24L15.5 14.24C15.91 14.24 16.25 13.91 16.25 13.49C16.25 13.08 15.91 12.74 15.5 12.74L12.75 12.74L12.75 11.74L15.5 11.74C15.91 11.74 16.25 11.41 16.25 10.99C16.25 10.58 15.91 10.24 15.5 10.24L13.18 10.24L15.26 6.89C15.47 6.54 15.37 6.07 15.01 5.86Z" fill="#000000" fill-opacity="0.600000" fill-rule="evenodd"/>
			<path d="M22 12C22 17.51 17.51 22 12 22C6.48 22 2 17.51 2 12C2 6.48 6.48 2 12 2C17.51 2 22 6.48 22 12ZM13.98 6.1L12 9.32L10.01 6.1C9.79 5.75 9.33 5.64 8.98 5.86C8.63 6.07 8.52 6.54 8.73 6.89L10.81 10.24L8.5 10.24C8.08 10.24 7.75 10.58 7.75 10.99C7.75 11.41 8.08 11.74 8.5 11.74L11.25 11.74L11.25 12.74L8.5 12.74C8.08 12.74 7.75 13.08 7.75 13.49C7.75 13.91 8.08 14.24 8.5 14.24L11.25 14.24L11.25 17.49C11.25 17.91 11.58 18.24 12 18.24C12.41 18.24 12.75 17.91 12.75 17.49L12.75 14.24L15.5 14.24C15.91 14.24 16.25 13.91 16.25 13.49C16.25 13.08 15.91 12.74 15.5 12.74L12.75 12.74L12.75 11.74L15.5 11.74C15.91 11.74 16.25 11.41 16.25 10.99C16.25 10.58 15.91 10.24 15.5 10.24L13.18 10.24L15.26 6.89C15.47 6.54 15.37 6.07 15.01 5.86C14.66 5.64 14.2 5.75 13.98 6.1Z" stroke="#000000" stroke-opacity="0" stroke-width="1.000000"/>
		</g>
	</g>
</svg>
