<svg width="80.000000" height="80.000000" viewBox="0 0 40 40" fill="none" xmlns="http://www.w3.org/2000/svg"
>
    <desc>
        Created with Pixso.
    </desc>
    <defs>
        <clipPath id="clip84_3108">
            <rect width="32.000000" height="32.000000" transform="translate(4.000000 4.000000)" fill="white"
                  fill-opacity="0"/>
        </clipPath>
    </defs>
    <ellipse cx="20.000000" cy="20.000000" rx="19.999996" ry="20.000000" fill="#3878F7" fill-opacity="0.178161"/>
    <ellipse cx="20.000000" cy="20.000000" rx="19.499996" ry="19.500000" stroke="#3878F7" stroke-opacity="1.000000"
             stroke-width="1.000000"/>
    <g clip-path="url(#clip84_3108)">
        <path d="M17.52 15.34L22.47 15.34L22.47 21.4L17.52 21.4L17.52 15.34Z" fill="#FFC1A0" fill-opacity="1.000000"
              fill-rule="nonzero"/>
        <path d="M23.53 15.56C23.57 15.57 23.6 15.58 23.64 15.58C23.67 15.58 23.71 15.57 23.75 15.56C23.78 15.55 23.82 15.53 23.86 15.51C23.89 15.49 23.93 15.46 23.96 15.43C24 15.4 24.03 15.36 24.06 15.32C24.1 15.28 24.13 15.23 24.16 15.19C24.18 15.14 24.21 15.09 24.23 15.04C24.26 14.99 24.28 14.93 24.29 14.88C24.31 14.82 24.32 14.77 24.33 14.71C24.34 14.66 24.35 14.6 24.35 14.54C24.36 14.49 24.36 14.44 24.35 14.39C24.35 14.33 24.34 14.29 24.33 14.24C24.32 14.19 24.3 14.15 24.29 14.11C24.27 14.07 24.25 14.04 24.22 14.01C24.2 13.98 24.17 13.95 24.14 13.93C24.11 13.91 24.08 13.89 24.05 13.88C24.02 13.87 23.98 13.87 23.95 13.87C23.91 13.87 23.88 13.88 23.84 13.89C23.8 13.9 23.77 13.92 23.73 13.94C23.69 13.96 23.66 13.99 23.62 14.02C23.59 14.05 23.55 14.09 23.52 14.13C23.49 14.17 23.46 14.21 23.43 14.26C23.4 14.31 23.38 14.36 23.35 14.41C23.33 14.46 23.31 14.52 23.29 14.57C23.28 14.63 23.26 14.68 23.25 14.74C23.24 14.79 23.23 14.85 23.23 14.9C23.23 14.96 23.23 15.01 23.23 15.06C23.24 15.11 23.25 15.16 23.26 15.21C23.27 15.26 23.28 15.3 23.3 15.34C23.32 15.38 23.34 15.41 23.36 15.44C23.39 15.47 23.41 15.5 23.44 15.52C23.47 15.54 23.5 15.55 23.53 15.56Z"
              fill="#FFC1A0" fill-opacity="1.000000" fill-rule="nonzero"/>
        <path d="M15.75 14.88C15.76 14.93 15.78 14.99 15.81 15.04C15.83 15.09 15.85 15.14 15.88 15.19C15.91 15.23 15.94 15.28 15.97 15.32C16.01 15.36 16.04 15.39 16.08 15.43C16.11 15.46 16.15 15.49 16.18 15.51C16.22 15.53 16.26 15.55 16.29 15.56C16.33 15.57 16.37 15.58 16.4 15.58C16.44 15.58 16.47 15.57 16.5 15.56C16.54 15.55 16.57 15.54 16.6 15.52C16.63 15.5 16.65 15.47 16.68 15.44C16.7 15.41 16.72 15.38 16.74 15.34C16.76 15.3 16.77 15.26 16.78 15.21C16.79 15.16 16.8 15.11 16.8 15.06C16.81 15.01 16.81 14.96 16.81 14.9C16.8 14.85 16.8 14.79 16.79 14.74C16.78 14.68 16.76 14.63 16.75 14.57C16.73 14.51 16.71 14.46 16.69 14.41C16.66 14.36 16.64 14.31 16.61 14.26C16.58 14.21 16.55 14.17 16.52 14.13C16.49 14.09 16.45 14.05 16.42 14.02C16.38 13.99 16.34 13.96 16.31 13.94C16.27 13.92 16.23 13.9 16.2 13.89C16.16 13.88 16.12 13.87 16.09 13.87C16.05 13.87 16.02 13.87 15.99 13.88C15.95 13.89 15.92 13.91 15.89 13.93C15.87 13.95 15.84 13.98 15.82 14.01C15.79 14.04 15.77 14.07 15.75 14.11C15.74 14.15 15.72 14.19 15.71 14.24C15.7 14.28 15.69 14.33 15.69 14.38C15.68 14.44 15.68 14.49 15.68 14.54C15.69 14.6 15.69 14.65 15.71 14.71C15.72 14.77 15.73 14.82 15.75 14.88Z"
              fill="#FFC1A0" fill-opacity="1.000000" fill-rule="nonzero"/>
        <path d="M16.44 14.39C16.44 14.54 16.45 14.69 16.46 14.84C16.47 14.99 16.49 15.14 16.51 15.29C16.54 15.44 16.56 15.58 16.6 15.73C16.63 15.87 16.67 16.01 16.72 16.15C16.76 16.29 16.81 16.43 16.87 16.56C16.92 16.69 16.98 16.82 17.05 16.95C17.11 17.07 17.18 17.19 17.26 17.31C17.33 17.43 17.41 17.54 17.49 17.64C17.57 17.75 17.66 17.85 17.75 17.95C17.84 18.04 17.94 18.13 18.03 18.22C18.13 18.3 18.23 18.38 18.33 18.45C18.44 18.52 18.54 18.58 18.65 18.64C18.76 18.7 18.87 18.75 18.98 18.79C19.09 18.84 19.21 18.87 19.32 18.9C19.44 18.93 19.55 18.95 19.67 18.97C19.78 18.98 19.9 18.99 20.02 18.99C20.14 18.99 20.25 18.98 20.37 18.97C20.49 18.95 20.6 18.93 20.72 18.9C20.83 18.87 20.94 18.84 21.06 18.79C21.17 18.75 21.28 18.7 21.39 18.64C21.49 18.58 21.6 18.52 21.7 18.45C21.81 18.38 21.91 18.3 22 18.22C22.1 18.13 22.2 18.04 22.29 17.95C22.38 17.85 22.46 17.75 22.55 17.64C22.63 17.54 22.71 17.43 22.78 17.31C22.86 17.19 22.93 17.07 22.99 16.95C23.06 16.82 23.12 16.69 23.17 16.56C23.23 16.43 23.28 16.29 23.32 16.15C23.37 16.01 23.41 15.87 23.44 15.73C23.47 15.58 23.5 15.44 23.52 15.29C23.55 15.14 23.56 14.99 23.58 14.84C23.59 14.69 23.59 14.54 23.59 14.39C23.59 14.24 23.59 14.09 23.58 13.94C23.56 13.79 23.55 13.64 23.52 13.49C23.5 13.35 23.47 13.2 23.44 13.06C23.41 12.91 23.37 12.77 23.32 12.63C23.28 12.49 23.23 12.36 23.17 12.22C23.12 12.09 23.06 11.96 22.99 11.84C22.93 11.71 22.86 11.59 22.78 11.47C22.71 11.36 22.63 11.25 22.55 11.14C22.46 11.03 22.38 10.93 22.29 10.84C22.2 10.74 22.1 10.65 22 10.57C21.91 10.48 21.81 10.41 21.7 10.34C21.6 10.26 21.49 10.2 21.39 10.14C21.28 10.08 21.17 10.03 21.06 9.99C20.94 9.95 20.83 9.91 20.72 9.88C20.6 9.85 20.49 9.83 20.37 9.81C20.25 9.8 20.14 9.79 20.02 9.79C19.9 9.79 19.78 9.8 19.67 9.81C19.55 9.83 19.44 9.85 19.32 9.88C19.21 9.91 19.09 9.95 18.98 9.99C18.87 10.03 18.76 10.08 18.65 10.14C18.54 10.2 18.44 10.26 18.33 10.34C18.23 10.41 18.13 10.48 18.03 10.57C17.94 10.65 17.84 10.74 17.75 10.84C17.66 10.93 17.57 11.03 17.49 11.14C17.41 11.25 17.33 11.36 17.26 11.47C17.18 11.59 17.11 11.71 17.05 11.84C16.98 11.96 16.92 12.09 16.87 12.22C16.81 12.36 16.76 12.49 16.72 12.63C16.67 12.77 16.63 12.91 16.6 13.06C16.56 13.2 16.54 13.35 16.51 13.49C16.49 13.64 16.47 13.79 16.46 13.94C16.45 14.09 16.44 14.24 16.44 14.39Z"
              fill="#FDD0B4" fill-opacity="1.000000" fill-rule="nonzero"/>
        <path d="M22.63 9.2C22.59 9.09 22.59 8.94 22.55 8.83C22.46 8.54 22.31 8.29 22.11 8.07C21.52 7.4 20.63 7.24 19.77 7.31C18.78 7.4 17.83 7.67 16.93 8.1C16.44 8.34 16.02 8.65 15.77 9.15C15.35 10.02 15.4 10.99 15.57 11.91C15.72 12.8 15.94 13.66 16.25 14.51L16.48 15.06C16.54 13.93 16.53 13.71 16.65 13.13C16.68 12.98 16.72 12.81 16.76 12.6C16.77 12.56 16.79 12.51 16.81 12.46C16.83 12.42 16.85 12.37 16.88 12.33C16.91 12.29 16.94 12.25 16.98 12.22C17.01 12.19 17.05 12.15 17.09 12.13C17.14 12.1 17.18 12.08 17.23 12.06C17.27 12.04 17.32 12.02 17.37 12.02C17.42 12.01 17.47 12 17.52 12C17.57 12 17.62 12.01 17.66 12.02C18.44 12.17 19.26 11.89 19.95 11.49C20.24 11.33 20.55 11.23 20.89 11.21C21.12 11.2 21.38 11.16 21.58 11.14C21.69 11.12 21.8 11.12 21.92 11.14C21.92 11.14 22.98 10.01 22.63 9.2Z"
              fill="#2B2C2D" fill-opacity="1.000000" fill-rule="nonzero"/>
        <path d="M23.87 14.24C23.9 14.15 23.94 14.07 23.97 13.98C24.1 13.67 24.2 13.34 24.27 13C24.35 12.59 24.43 12.19 24.47 11.77C24.52 11.36 24.6 10.94 24.51 10.51C24.41 9.97 24.05 9.62 23.55 9.41C23.25 9.27 22.94 9.19 22.6 9.19C23 9.81 21.92 11.14 21.92 11.14C22.04 11.14 22.15 11.16 22.26 11.18C22.36 11.22 22.46 11.26 22.54 11.32C22.92 11.6 23.15 12.14 23.27 12.55C23.39 12.92 23.48 13.29 23.54 13.68C23.57 13.9 23.58 14.13 23.57 14.36C23.57 14.54 23.57 14.88 23.56 15.05C23.63 14.82 23.77 14.46 23.87 14.24Z"
              fill="#2B2C2D" fill-opacity="1.000000" fill-rule="nonzero"/>
        <path d="M15.83 14.35C15.93 14.39 16.01 14.46 16.08 14.53C16.15 14.6 16.22 14.69 16.27 14.78C16.37 14.96 16.42 15.16 16.41 15.37C16.37 15.27 16.35 15.17 16.31 15.08C16.27 14.99 16.23 14.91 16.18 14.82C16.08 14.65 15.97 14.49 15.83 14.35Z"
              fill="#FA9E6C" fill-opacity="1.000000" fill-rule="nonzero"/>
        <path d="M15.89 14.81C15.93 14.79 15.96 14.77 16.01 14.77C16.05 14.76 16.09 14.76 16.13 14.77C16.18 14.78 16.22 14.8 16.25 14.83C16.29 14.86 16.3 14.9 16.3 14.95C16.27 14.93 16.24 14.91 16.21 14.89C16.17 14.88 16.14 14.87 16.11 14.86C16.08 14.85 16.04 14.85 16.01 14.84C15.97 14.83 15.93 14.82 15.89 14.81ZM24.17 14.35C24.04 14.49 23.93 14.65 23.83 14.82C23.78 14.91 23.74 14.99 23.7 15.08C23.66 15.17 23.64 15.27 23.6 15.37C23.59 15.15 23.64 14.96 23.75 14.78C23.8 14.69 23.86 14.6 23.93 14.53C24 14.46 24.08 14.4 24.17 14.35Z"
              fill="#FA9E6C" fill-opacity="1.000000" fill-rule="nonzero"/>
        <path d="M24.12 14.81C24.08 14.82 24.04 14.83 24 14.84C23.96 14.85 23.93 14.86 23.89 14.87C23.86 14.87 23.83 14.88 23.8 14.9C23.77 14.91 23.73 14.93 23.71 14.96C23.7 14.91 23.72 14.87 23.76 14.84C23.79 14.8 23.83 14.78 23.87 14.77C23.91 14.76 23.96 14.76 24 14.77C24.04 14.78 24.08 14.79 24.12 14.81Z"
              fill="#FA9E6C" fill-opacity="1.000000" fill-rule="nonzero"/>
        <path d="M23.12 19.41L21.48 20.77L20.36 20.59L20.02 20.6L19.96 20.6L19.62 20.59L18.5 20.77L16.86 19.41L11.5 21.68C11.76 21.78 12.14 22.87 12.46 23.94C12.77 25.01 13.02 26.04 13.02 26.04C13.02 26.04 13.02 26.08 13.03 26.11C13.04 26.13 13.04 26.16 13.05 26.19C13.07 26.31 13.09 26.46 13.1 26.64C13.1 26.7 13.1 26.76 13.11 26.83C13.13 27.05 13.13 27.29 13.14 27.56C13.15 27.83 13.14 28.11 13.14 28.4L13.14 29.32C13.12 31.48 13.01 33.86 13.01 33.86L26.97 33.86C26.97 33.86 26.86 31.48 26.84 29.32L26.84 28.4C26.84 28.1 26.84 27.82 26.85 27.56C26.86 27.3 26.87 27.05 26.88 26.83C26.88 26.76 26.89 26.7 26.9 26.64C26.91 26.46 26.93 26.31 26.95 26.19C26.95 26.16 26.96 26.13 26.97 26.11C26.97 26.08 26.98 26.06 26.98 26.04C26.98 26.02 27.23 25 27.54 23.94C27.86 22.87 28.24 21.78 28.5 21.68L23.12 19.41Z"
              fill="#0394DD" fill-opacity="1.000000" fill-rule="nonzero"/>
        <path d="M13.14 30.42C13.14 30.64 13.13 30.86 13.12 31.07C13.12 31.28 13.11 31.47 13.11 31.65C13.11 31.88 13.09 32.1 13.09 32.3C13.05 33.22 13.02 33.86 13.02 33.86L13 33.86C8.36 33.74 7.89 32.36 7.89 32.36C7.95 32.03 8.03 31.69 8.13 31.37C8.19 31.18 8.25 30.97 8.32 30.75C8.37 30.58 8.43 30.39 8.49 30.2C8.55 30 8.62 29.79 8.69 29.58C9.76 26.34 11.5 21.67 11.5 21.67C12.03 21.88 13.02 26.04 13.02 26.04C13.18 26.6 13.18 28.59 13.14 30.42ZM32.1 32.36C32.1 32.36 31.63 33.74 26.99 33.86L26.97 33.86C26.97 33.86 26.95 33.3 26.92 32.49C26.92 32.28 26.91 32.07 26.9 31.84C26.9 31.65 26.89 31.45 26.88 31.25C26.88 31.05 26.87 30.82 26.86 30.6C26.82 28.72 26.82 26.62 26.98 26.04C26.98 26.04 27.97 21.88 28.5 21.67C28.5 21.67 30.3 26.52 31.36 29.75C31.43 29.97 31.5 30.17 31.56 30.37C31.63 30.57 31.68 30.75 31.73 30.92C31.8 31.15 31.86 31.36 31.91 31.54C31.99 31.81 32.06 32.09 32.1 32.36Z"
              fill="#016FBF" fill-opacity="1.000000" fill-rule="nonzero"/>
        <path d="" fill="#E7E6E6" fill-opacity="1.000000" fill-rule="nonzero"/>
        <path d="" fill="#FFFFFF" fill-opacity="1.000000" fill-rule="nonzero"/>
        <path d="M17.52 18.7L16.65 19.5C16.65 19.5 15.83 20.56 17.78 21.92L20.02 20.61C20.02 20.61 18.08 20.03 17.52 18.7Z"
              fill="#016FBF" fill-opacity="1.000000" fill-rule="nonzero"/>
        <path d="M22.47 18.7L23.34 19.5C23.34 19.5 24.16 20.56 22.21 21.92L19.97 20.61C19.97 20.61 21.92 20.03 22.47 18.7Z"
              fill="#016FBF" fill-opacity="1.000000" fill-rule="nonzero"/>
        <path d="M24.83 11.05C24.83 11.51 24.76 11.95 24.62 12.39C24.39 12.15 24.14 11.94 23.87 11.75C22.83 11.04 21.47 10.76 20.02 10.76C18.58 10.76 17.21 11.04 16.18 11.75C15.9 11.94 15.65 12.15 15.42 12.39C15.28 11.95 15.21 11.51 15.21 11.05C15.21 8.55 17.37 6.13 20.02 6.13C22.67 6.13 24.83 8.55 24.83 11.05Z"
              fill="#0394DD" fill-opacity="1.000000" fill-rule="nonzero"/>
        <path d="M24.89 12.84C24.89 12.85 24.88 12.86 24.88 12.87C24.85 12.92 24.82 12.98 24.79 13.03C24.75 13.08 24.71 13.12 24.66 13.16C24.62 13.2 24.57 13.23 24.51 13.26C24.46 13.29 24.4 13.31 24.34 13.33C24.28 13.34 24.22 13.35 24.16 13.35C24.1 13.35 24.03 13.34 23.97 13.33C23.91 13.32 23.86 13.3 23.8 13.27C23.75 13.24 23.7 13.21 23.65 13.17C22.79 12.48 21.47 12.03 20.02 12.03C18.57 12.03 17.26 12.48 16.4 13.17C16.35 13.21 16.3 13.24 16.24 13.27C16.19 13.29 16.13 13.32 16.07 13.33C16.01 13.34 15.95 13.35 15.89 13.35C15.82 13.35 15.76 13.34 15.7 13.32C15.64 13.31 15.59 13.29 15.53 13.26C15.48 13.23 15.43 13.2 15.38 13.16C15.33 13.12 15.29 13.07 15.26 13.03C15.22 12.98 15.19 12.92 15.16 12.87L15.15 12.84C15.14 12.79 15.13 12.75 15.12 12.7C15.12 12.65 15.12 12.61 15.13 12.56C15.14 12.52 15.16 12.47 15.18 12.43C15.21 12.39 15.24 12.36 15.27 12.33C15.46 12.15 15.65 12 15.86 11.86C16.98 11.08 18.46 10.67 20.02 10.67C21.58 10.67 23.06 11.09 24.18 11.86C24.39 12 24.59 12.16 24.77 12.34C24.8 12.37 24.83 12.4 24.86 12.44C24.88 12.48 24.9 12.52 24.91 12.57C24.92 12.61 24.92 12.66 24.92 12.7C24.92 12.75 24.91 12.79 24.89 12.84Z"
              fill="#016FBF" fill-opacity="1.000000" fill-rule="nonzero"/>
    </g>
</svg>
