<svg width="24.000000" height="28.000000" viewBox="0 0 24 28" fill="none" xmlns="http://www.w3.org/2000/svg"
>
    <desc>
        Created with Pixso.
    </desc>
    <defs/>
    <path d="M0 5L12 0L24 5L24 14L24 23L12 28L0 23L0 14L0 5Z" fill="#0A59F7" fill-opacity="1.000000"
          fill-rule="evenodd"/>
    <path d="M8.01 19.09L9.15 19.7Q9.7 18.75 10.09 17.75Q10.31 17.17 10.47 16.57Q10.73 15.59 10.79 14.56Q10.96 13.35 10.96 12.15L10.96 9.52Q14.29 9.2 17.62 8.48L17.41 7.28Q13.58 8.05 9.76 8.31L9.76 12.25Q9.76 13.22 9.67 14.19Q9.66 14.32 9.64 14.45Q9.53 15.1 9.42 15.75Q9.21 16.63 8.87 17.45Q8.5 18.27 8.01 19.09ZM6.86 7.39L6.14 8.31Q7.4 9.25 8.66 10.23L9.38 9.2Q8.12 8.26 6.86 7.39ZM11.51 18.55L12.05 19.64Q12.37 19.42 12.71 19.26Q13.91 18.7 15.06 18.15L15.01 16.91Q14.07 17.34 13.14 17.78L13.14 11.87Q13.63 11.81 14.18 11.7Q14.29 13.13 14.57 14.45Q14.62 14.71 14.68 14.98Q14.83 15.57 15.06 16.14Q15.14 16.35 15.24 16.56Q15.57 17.31 16.04 18Q16.7 18.81 17.47 19.58L18.45 18.55Q18.14 18.29 17.86 18.01Q17.29 17.45 16.81 16.8Q16.26 15.97 15.93 14.99Q17.02 14.45 18.13 13.79L17.57 12.7Q16.59 13.3 15.61 13.84Q15.33 12.7 15.27 11.55Q16.42 11.32 17.53 11.06L17.25 9.85Q14.67 10.45 12 10.72L12 17.83Q12 18.04 11.9 18.18Q11.89 18.2 11.88 18.21Q11.71 18.38 11.51 18.55ZM6.31 10.5L5.6 11.43Q6.91 12.42 8.21 13.45L8.93 12.42Q7.63 11.43 6.31 10.5ZM8.55 14.39L7.95 14.22L7.4 14.05Q6.63 16.63 5.82 19.09L7.07 19.42Q7.78 16.91 8.55 14.39Z"
          fill="#FFFFFF" fill-opacity="1.000000" fill-rule="evenodd"/>
</svg>
