<svg width="72.000000" height="94.000000" viewBox="0 0 36 47" fill="none" xmlns="http://www.w3.org/2000/svg"
>
    <desc>
        Created with Pixso.
    </desc>
    <defs>
        <clipPath id="clip232_2836">
            <rect width="32.000000" height="32.000000" transform="translate(2.000000 2.000000)" fill="white"
                  fill-opacity="0"/>
        </clipPath>
    </defs>
    <circle cx="18.000000" cy="44.000000" r="3.000000" fill="#0A59F7" fill-opacity="1.000000"/>
    <path d="M8 0L28 0C32.4183 0 36 3.58173 36 8L36 28C36 32.4183 32.4183 36 28 36L23 36L19 41.5L18 43L17 41.5L13 36L8 36C3.58173 36 0 32.4183 0 28L0 8C0 3.58173 3.58173 0 8 0Z"
          clip-rule="evenodd" fill="#FFFFFF" fill-opacity="1.000000" fill-rule="evenodd"/>
    <g clip-path="url(#clip232_2836)">
        <path d="M7.1 3L28.89 3C29.4 3 29.73 3.53 29.51 3.98C29.39 4.22 29.15 4.37 28.89 4.37L7.1 4.37C6.84 4.37 6.6 4.22 6.48 3.98C6.26 3.53 6.59 3 7.1 3Z"
              fill="#000000" fill-opacity="0.600000" fill-rule="evenodd"/>
        <g opacity="0.700000">
            <path d="M7.36 31.8L28.63 31.8C29.01 31.8 29.32 31.49 29.32 31.11C29.32 30.73 29.01 30.42 28.63 30.42L7.36 30.42C6.98 30.42 6.67 30.73 6.67 31.11C6.67 31.49 6.98 31.8 7.36 31.8Z"
                  fill="#000000" fill-opacity="0.898039" fill-rule="evenodd"/>
        </g>
        <rect x="6.676025" y="4.371460" width="22.647888" height="26.742857" fill="#64BB5C" fill-opacity="1.000000"/>
        <rect x="15.464783" y="4.371460" width="0.676056" height="26.742857" fill="#000000" fill-opacity="0.800000"/>
        <rect x="23.577454" y="4.371460" width="0.676056" height="26.742857" fill="#000000" fill-opacity="0.800000"/>
        <rect x="6.676025" y="7.114258" width="22.647888" height="0.342857" fill="#000000" fill-opacity="1.000000"/>
        <rect x="6.676025" y="10.200012" width="22.647888" height="0.171429" fill="#000000" fill-opacity="1.000000"/>
        <rect x="6.676025" y="18.771423" width="22.647888" height="0.171429" fill="#000000" fill-opacity="1.000000"/>
        <rect x="6.676025" y="27.000000" width="22.647888" height="0.171429" fill="#000000" fill-opacity="1.000000"/>
        <rect x="6.676025" y="13.285706" width="22.647888" height="0.171429" fill="#000000" fill-opacity="1.000000"/>
        <rect x="6.676025" y="21.171387" width="22.647888" height="0.171429" fill="#000000" fill-opacity="1.000000"/>
        <rect x="6.676025" y="15.685669" width="22.647888" height="0.171429" fill="#000000" fill-opacity="1.000000"/>
        <rect x="6.676025" y="24.257141" width="22.647888" height="0.171429" fill="#000000" fill-opacity="1.000000"/>
        <rect x="17.830994" y="16.714294" width="3.042254" height="1.371429" fill="#ED6F21" fill-opacity="1.000000"/>
        <rect x="20.873230" y="16.714294" width="1.014085" height="1.371429" fill="#000000" fill-opacity="0.698039"/>
        <rect x="20.873230" y="17.057129" width="1.014085" height="0.034286" fill="#C4C4C4" fill-opacity="1.000000"/>
        <path d="M21.21 18.08L21.21 16.71L21.24 16.71L21.24 18.08L21.21 18.08Z" fill="#C4C4C4" fill-opacity="1.000000"
              fill-rule="evenodd"/>
        <path d="M21.54 18.08L21.54 16.71L21.58 16.71L21.58 18.08L21.54 18.08Z" fill="#C4C4C4" fill-opacity="1.000000"
              fill-rule="evenodd"/>
        <rect x="20.873230" y="17.400024" width="1.014085" height="0.034286" fill="#C4C4C4" fill-opacity="1.000000"/>
        <rect x="20.873230" y="17.742859" width="1.014085" height="0.034286" fill="#C4C4C4" fill-opacity="1.000000"/>
    </g>
</svg>
