<svg width="24.000000" height="24.000000" viewBox="0 0 24 24" fill="none" xmlns="http://www.w3.org/2000/svg" xmlns:xlink="http://www.w3.org/1999/xlink">
	<desc>
			Created with Pixso.
	</desc>
	<defs>
		<clipPath id="clip86_3177">
			<rect width="24.000000" height="24.000000" fill="white" fill-opacity="0"/>
		</clipPath>
	</defs>
	<g clip-path="url(#clip86_3177)">
		<g opacity="0.000000"/>
		<path d="M12 2.01C15.65 2.01 18.96 4 20.71 7.13C21.36 8.29 21.77 9.56 21.92 10.9L21.93 11.05C21.96 11.21 21.98 11.37 21.98 11.54L21.98 12.58C21.98 15.05 19.97 17.06 17.5 17.06C17.08 17.06 16.75 16.72 16.75 16.31L16.75 11.07C16.75 9.88 17.71 8.92 18.89 8.92L19.36 8.92C19.55 8.92 19.74 8.94 19.92 8.98C19.78 8.6 19.6 8.22 19.4 7.86C17.91 5.2 15.1 3.51 12 3.51C8.37 3.51 5.28 5.79 4.06 8.99C4.25 8.95 4.44 8.93 4.63 8.93L5.1 8.93C6.28 8.93 7.25 9.89 7.25 11.08L7.25 16.31C7.25 16.73 6.91 17.06 6.5 17.06C5.98 17.06 5.48 16.98 5.02 16.81C6.14 18.44 7.83 19.66 9.79 20.19C9.76 20.04 9.75 19.88 9.75 19.73C9.75 18.48 10.75 17.48 12 17.48C13.24 17.48 14.25 18.48 14.25 19.73C14.25 20.97 13.24 21.98 12 21.98C7.08 21.98 3 18.43 2.17 13.75C2.07 13.38 2.02 12.99 2.02 12.58L2.02 11.54C2.02 11.38 2.03 11.22 2.06 11.07C2.53 5.99 6.8 2.01 12 2.01Z" fill="#000000" fill-opacity="0.600000" fill-rule="evenodd"/>
	</g>
</svg>
