<svg width="32.000000" height="32.000000" viewBox="0 0 32 32" fill="none" xmlns="http://www.w3.org/2000/svg" xmlns:xlink="http://www.w3.org/1999/xlink">
	<desc>
			Created with Pixso.
	</desc>
	<defs/>
	<rect rx="16.000000" width="32.000000" height="32.000000" fill="#BFD5FF" fill-opacity="1.000000"/>
	<g opacity="0.000000">
		<rect x="4.000000" y="4.000000" width="24.000000" height="24.000000" fill="#D8D8D8" fill-opacity="1.000000"/>
		<rect x="4.000000" y="4.000000" width="24.000000" height="24.000000" stroke="#000000" stroke-opacity="0" stroke-width="1.000000"/>
	</g>
	<path d="M13.71 19.5L13.78 19.64C16.21 18.28 18.23 16.26 19.59 13.83L19.45 13.75C18.71 13.37 18.41 12.48 18.74 11.71C19.22 10.59 19.54 9.39 19.7 8.13C19.78 7.48 20.35 7 21.01 7L23.44 7C24.36 7 25.1 7.79 25.01 8.7C24.22 17.16 17.61 23.94 9.22 24.98C7.98 25.13 6.97 24.28 6.97 23.03L6.97 21.05C6.97 20.39 7.45 19.83 8.11 19.75C9.35 19.59 10.55 19.26 11.66 18.79C12.43 18.46 13.32 18.76 13.71 19.5Z" fill="#0A59F7" fill-opacity="1.000000" fill-rule="evenodd"/>
	<path d="M13.78 19.64C16.21 18.28 18.23 16.26 19.59 13.83L19.45 13.75C18.71 13.37 18.41 12.48 18.74 11.71C19.22 10.59 19.54 9.39 19.7 8.13C19.78 7.48 20.35 7 21.01 7L23.44 7C24.36 7 25.1 7.79 25.01 8.7C24.22 17.16 17.61 23.94 9.22 24.98C7.98 25.13 6.97 24.28 6.97 23.03L6.97 21.05C6.97 20.39 7.45 19.83 8.11 19.75C9.35 19.59 10.55 19.26 11.66 18.79C12.43 18.46 13.32 18.76 13.71 19.5L13.78 19.64Z" stroke="#000000" stroke-opacity="0" stroke-width="1.000000"/>
</svg>
