<svg width="24.000000" height="28.000000" viewBox="0 0 24 28" fill="none" xmlns="http://www.w3.org/2000/svg"
>
    <desc>
        Created with Pixso.
    </desc>
    <defs/>
    <path d="M0 5L12 0L24 5L24 14L24 23L12 28L0 23L0 14L0 5Z" fill="#0A59F7" fill-opacity="1.000000"
          fill-rule="evenodd"/>
    <path d="M7.29 7.39L6.31 8.2Q7.35 9.52 8.38 10.78L9.42 9.91Q8.38 8.65 7.29 7.39ZM10.13 7.99L10.13 9.2L17.53 9.2L17.53 7.99L10.13 7.99ZM9.76 15.65L10.13 16.8Q10.57 16.68 11.13 16.68Q13.75 16.52 16.38 16.35L16.92 17.4L18.07 16.74Q16.92 14.77 15.78 12.85L14.67 13.45Q15.21 14.33 15.72 15.16Q13.69 15.26 11.71 15.37Q11.8 15.27 11.87 15.18Q12.29 14.66 12.65 14.11Q13.2 13.24 13.63 12.3L18.23 12.3L18.23 11.1L9.38 11.1L9.38 12.3L12.16 12.3Q11.45 13.79 10.53 15.1Q10.24 15.43 9.87 15.6Q9.82 15.63 9.76 15.65ZM7.46 16.68L5.48 18.32L6.2 19.53L8.12 17.72Q8.27 17.92 8.44 18.1Q8.69 18.37 8.98 18.6Q9.38 18.81 9.76 18.98Q10.25 19.2 10.85 19.26Q11.56 19.3 12.28 19.3L18.17 19.3L18.34 18.1L12.43 18.1Q11.77 18.1 11.13 18.06Q10.57 17.95 10.08 17.78Q9.76 17.61 9.42 17.4Q8.98 17.01 8.66 16.57L8.66 11.87L5.65 11.87L5.65 13.02L7.46 13.02L7.46 16.68Z"
          fill="#FFFFFF" fill-opacity="1.000000" fill-rule="evenodd"/>
</svg>
