<svg width="24.000000" height="24.000000" viewBox="0 0 24 24" fill="none" xmlns="http://www.w3.org/2000/svg" xmlns:xlink="http://www.w3.org/1999/xlink">
	<desc>
			Created with Pixso.
	</desc>
	<defs>
		<clipPath id="clip32_999">
			<rect width="24.000000" height="24.000000" fill="white" fill-opacity="0"/>
		</clipPath>
	</defs>
	<g clip-path="url(#clip32_999)">
		<g opacity="0.000000">
			<rect width="24.000000" height="24.000000" fill="#D8D8D8" fill-opacity="1.000000"/>
			<rect width="24.000000" height="24.000000" stroke="#000000" stroke-opacity="0" stroke-width="1.000000"/>
		</g>
		<path d="M10.65 1.85C15.21 1.85 18.92 5.56 18.92 10.12C18.92 11.42 18.62 12.67 18.04 13.83C17.79 14.33 17.19 14.52 16.7 14.28C16.2 14.03 16 13.43 16.25 12.93C16.69 12.05 16.92 11.11 16.92 10.12C16.92 6.66 14.1 3.85 10.65 3.85C7.19 3.85 4.37 6.66 4.37 10.12C4.37 13.58 7.19 16.39 10.65 16.39C12.08 16.39 13.49 15.89 14.6 14.98C14.64 14.96 14.68 14.93 14.71 14.91C14.74 14.89 14.8 14.86 14.83 14.85C14.86 14.83 14.91 14.81 14.94 14.8C14.96 14.8 15.03 14.78 15.05 14.78C15.07 14.77 15.15 14.76 15.17 14.76C15.19 14.76 15.27 14.76 15.29 14.76C15.31 14.76 15.38 14.77 15.4 14.77C15.41 14.78 15.51 14.8 15.52 14.8C15.54 14.81 15.61 14.83 15.64 14.84C15.66 14.85 15.72 14.88 15.74 14.89C15.75 14.9 15.83 14.95 15.84 14.96C15.84 14.96 15.94 15.05 15.94 15.05L21.32 20.44C21.71 20.83 21.71 21.46 21.32 21.85C21.13 22.05 20.87 22.15 20.62 22.15C20.36 22.15 20.1 22.05 19.91 21.85L15.13 17.07C13.8 17.93 12.24 18.39 10.65 18.39C6.08 18.39 2.37 14.68 2.37 10.12C2.37 5.56 6.08 1.85 10.65 1.85Z" fill="#0A59F7" fill-opacity="1.000000" fill-rule="evenodd"/>
		<path d="M18.92 10.12C18.92 11.42 18.62 12.67 18.04 13.83C17.79 14.33 17.19 14.52 16.7 14.28C16.2 14.03 16 13.43 16.25 12.93C16.69 12.05 16.92 11.11 16.92 10.12C16.92 6.66 14.1 3.85 10.65 3.85C7.19 3.85 4.37 6.66 4.37 10.12C4.37 13.58 7.19 16.39 10.65 16.39C12.08 16.39 13.49 15.89 14.6 14.98C14.64 14.96 14.68 14.93 14.71 14.91C14.74 14.89 14.8 14.86 14.83 14.85C14.86 14.83 14.91 14.81 14.94 14.8C14.96 14.8 15.03 14.78 15.05 14.78C15.07 14.77 15.15 14.76 15.17 14.76C15.19 14.76 15.27 14.76 15.29 14.76C15.31 14.76 15.38 14.77 15.4 14.77C15.41 14.78 15.51 14.8 15.52 14.8C15.54 14.81 15.61 14.83 15.64 14.84C15.66 14.85 15.72 14.88 15.74 14.89C15.75 14.9 15.83 14.95 15.84 14.96C15.84 14.96 15.94 15.05 15.94 15.05L21.32 20.44C21.71 20.83 21.71 21.46 21.32 21.85C21.13 22.05 20.87 22.15 20.62 22.15C20.36 22.15 20.1 22.05 19.91 21.85L15.13 17.07C13.8 17.93 12.24 18.39 10.65 18.39C6.08 18.39 2.37 14.68 2.37 10.12C2.37 5.56 6.08 1.85 10.65 1.85C15.21 1.85 18.92 5.56 18.92 10.12Z" stroke="#000000" stroke-opacity="0" stroke-width="1.000000"/>
	</g>
</svg>
