<svg width="24.000000" height="24.000000" viewBox="0 0 24 24" fill="none" xmlns="http://www.w3.org/2000/svg" xmlns:xlink="http://www.w3.org/1999/xlink">
	<desc>
			Created with Pixso.
	</desc>
	<defs>
		<clipPath id="clip32_992">
			<rect width="24.000000" height="24.000000" fill="white" fill-opacity="0"/>
		</clipPath>
	</defs>
	<g clip-path="url(#clip32_992)">
		<g opacity="0.000000">
			<rect width="24.000000" height="24.000000" fill="#D8D8D8" fill-opacity="1.000000"/>
			<rect width="24.000000" height="24.000000" stroke="#000000" stroke-opacity="0" stroke-width="1.000000"/>
		</g>
		<path d="M8.06 13.81C8.06 13.75 8.07 13.76 8.08 13.7C8.08 13.69 8.12 13.59 8.12 13.58C8.14 13.54 8.16 13.5 8.18 13.47C8.18 13.46 8.26 13.36 8.27 13.36L17.26 6.43L3.87 10.9L6.85 12.21C7.2 12.36 7.37 12.75 7.27 13.1C7.12 13.45 6.7 13.72 6.34 13.62L2.77 12.05C1.73 11.6 1.75 10.14 2.75 9.7L2.88 9.65L21.01 3.6C21.06 3.58 21.12 3.57 21.17 3.57C21.35 3.55 21.53 3.6 21.67 3.69C21.68 3.71 21.77 3.78 21.78 3.79C21.85 3.88 21.95 4.04 21.98 4.14C21.98 4.17 21.99 4.22 21.99 4.25L21.99 4.35L20.04 17.09C19.86 18.24 18.69 18.92 17.63 18.55L17.49 18.49L13.33 16.67L10.31 20C9.54 20.84 8.16 20.35 8.06 19.26L8.06 19.13L8.06 13.81ZM9.56 15.02L9.56 18.59L11.88 16.04L9.56 15.02ZM20.22 6.05L10.27 13.7L18.09 17.12C18.27 17.2 18.47 17.11 18.54 16.94L20.22 6.05Z" fill="#000000" fill-opacity="0.600000" fill-rule="evenodd"/>
		<path d="M8.08 13.7C8.08 13.69 8.12 13.59 8.12 13.58C8.14 13.54 8.16 13.5 8.18 13.47C8.18 13.46 8.26 13.36 8.27 13.36L17.26 6.43L3.87 10.9L6.85 12.21C7.2 12.36 7.37 12.75 7.27 13.1C7.12 13.45 6.7 13.72 6.34 13.62L2.77 12.05C1.73 11.6 1.75 10.14 2.75 9.7L2.88 9.65L21.01 3.6C21.06 3.58 21.12 3.57 21.17 3.57C21.35 3.55 21.53 3.6 21.67 3.69C21.68 3.71 21.77 3.78 21.78 3.79C21.85 3.88 21.95 4.04 21.98 4.14C21.98 4.17 21.99 4.22 21.99 4.25L21.99 4.35L20.04 17.09C19.86 18.24 18.69 18.92 17.63 18.55L17.49 18.49L13.33 16.67L10.31 20C9.54 20.84 8.16 20.35 8.06 19.26L8.06 19.13L8.06 13.81C8.06 13.75 8.07 13.76 8.08 13.7ZM9.56 18.59L11.88 16.04L9.56 15.02L9.56 18.59ZM10.27 13.7L18.09 17.12C18.27 17.2 18.47 17.11 18.54 16.94L20.22 6.05L10.27 13.7Z" stroke="#000000" stroke-opacity="0" stroke-width="1.000000"/>
	</g>
</svg>
