<svg width="24.000000" height="24.000000" viewBox="0 0 24 24" fill="none" xmlns="http://www.w3.org/2000/svg" xmlns:xlink="http://www.w3.org/1999/xlink">
	<desc>
			Created with Pixso.
	</desc>
	<defs>
		<clipPath id="clip4_239">
			<rect width="24.000000" height="24.000000" fill="white" fill-opacity="0"/>
		</clipPath>
	</defs>
	<g clip-path="url(#clip4_239)">
		<g opacity="0.000000">
			<rect width="24.000000" height="24.000000" fill="#D8D8D8" fill-opacity="1.000000"/>
			<rect width="24.000000" height="24.000000" stroke="#000000" stroke-opacity="0" stroke-width="1.000000"/>
		</g>
		<path d="M8.66 15.82L12.94 17.68L10.91 19.91C10.66 20.19 10.31 20.34 9.96 20.34C9.8 20.34 9.64 20.31 9.49 20.25C8.99 20.05 8.66 19.58 8.66 19.04L8.66 15.82ZM21.01 3.69C21.26 3.61 21.53 3.66 21.73 3.83C21.93 4 22.03 4.26 21.99 4.52L20.04 17.19C19.95 17.75 19.61 18.24 19.11 18.51C18.83 18.66 18.53 18.74 18.23 18.74C17.98 18.74 17.73 18.69 17.49 18.59L14.41 17.24L9.06 14.91L8.75 14.76L16.33 8.18L6.66 13.85L5.8 13.47L2.77 12.14C2.27 11.93 1.97 11.44 2 10.9C2.02 10.36 2.37 9.91 2.88 9.74L21.01 3.69Z" fill="#0A59F7" fill-opacity="1.000000" fill-rule="evenodd"/>
		<path d="M12.94 17.68L10.91 19.91C10.66 20.19 10.31 20.34 9.96 20.34C9.8 20.34 9.64 20.31 9.49 20.25C8.99 20.05 8.66 19.58 8.66 19.04L8.66 15.82L12.94 17.68ZM21.73 3.83C21.93 4 22.03 4.26 21.99 4.52L20.04 17.19C19.95 17.75 19.61 18.24 19.11 18.51C18.83 18.66 18.53 18.74 18.23 18.74C17.98 18.74 17.73 18.69 17.49 18.59L14.41 17.24L9.06 14.91L8.75 14.76L16.33 8.18L6.66 13.85L5.8 13.47L2.77 12.14C2.27 11.93 1.97 11.44 2 10.9C2.02 10.36 2.37 9.91 2.88 9.74L21.01 3.69C21.26 3.61 21.53 3.66 21.73 3.83Z" stroke="#000000" stroke-opacity="0" stroke-width="1.000000"/>
	</g>
</svg>
