<svg width="24.000000" height="24.000000" viewBox="0 0 24 24" fill="none" xmlns="http://www.w3.org/2000/svg" xmlns:xlink="http://www.w3.org/1999/xlink">
	<desc>
			Created with Pixso.
	</desc>
	<defs>
		<clipPath id="clip48_701">
			<rect width="24.000000" height="24.000000" fill="white" fill-opacity="0"/>
		</clipPath>
		<clipPath id="clip48_623">
			<rect width="24.000000" height="24.000000" fill="white" fill-opacity="0"/>
		</clipPath>
		<clipPath id="clip48_624">
			<rect width="24.000000" height="24.000000" fill="white" fill-opacity="0"/>
		</clipPath>
	</defs>
	<g clip-path="url(#clip48_624)">
		<g clip-path="url(#clip48_623)">
			<g clip-path="url(#clip48_701)">
				<g opacity="0.000000">
					<rect width="24.000000" height="24.000000" fill="#D8D8D8" fill-opacity="1.000000"/>
					<rect width="24.000000" height="24.000000" stroke="#000000" stroke-opacity="0" stroke-width="1.000000"/>
				</g>
				<path d="M15.66 3C16.73 3 17.72 3.57 18.26 4.5L20.6 8.59C21.19 9.63 21.12 10.91 20.41 11.87L14.54 19.78C13.55 21.11 11.67 21.39 10.34 20.4C10.13 20.24 9.93 20.06 9.77 19.84L3.64 12.01C2.84 10.99 2.78 9.57 3.51 8.49L6.3 4.32C6.86 3.49 7.79 3 8.79 3L15.66 3ZM16.45 10.4C16.12 10.15 15.65 10.21 15.4 10.54L12.2 14.74L9.1 10.55C8.84 10.29 8.35 10.17 8.05 10.39C7.72 10.64 7.65 11.11 7.89 11.44L11.59 16.44C11.91 16.76 12.51 16.82 12.79 16.45L16.59 11.45C16.77 11.13 16.75 10.63 16.45 10.4Z" fill="#0A59F7" fill-opacity="1.000000" fill-rule="evenodd"/>
				<path d="M18.26 4.5L20.6 8.59C21.19 9.63 21.12 10.91 20.41 11.87L14.54 19.78C13.55 21.11 11.67 21.39 10.34 20.4C10.13 20.24 9.93 20.06 9.77 19.84L3.64 12.01C2.84 10.99 2.78 9.57 3.51 8.49L6.3 4.32C6.86 3.49 7.79 3 8.79 3L15.66 3C16.73 3 17.72 3.57 18.26 4.5ZM15.4 10.54L12.2 14.74L9.1 10.55C8.84 10.29 8.35 10.17 8.05 10.39C7.72 10.64 7.65 11.11 7.89 11.44L11.59 16.44C11.91 16.76 12.51 16.82 12.79 16.45L16.59 11.45C16.77 11.13 16.75 10.63 16.45 10.4C16.12 10.15 15.65 10.21 15.4 10.54Z" stroke="#000000" stroke-opacity="0" stroke-width="1.000000"/>
			</g>
		</g>
	</g>
</svg>
