<svg width="72.000000" height="72.000000" viewBox="0 0 72 72" fill="none" xmlns="http://www.w3.org/2000/svg">
	<defs>
		<clipPath id="clip10_1315">
			<rect rx="16.000000" width="72.000000" height="72.000000" fill="white" fill-opacity="0"/>
		</clipPath>
	</defs>
	<g clip-path="url(#clip10_1315)">
		<rect width="72.000000" height="72.000000" fill="#E64566" fill-opacity="1.000000"/>
		<path d="M17.34 16.6C19.41 16.6 21.22 17.94 21.85 19.88L21.94 20.21L22.12 20.97L54.65 20.97C55.55 20.97 56.24 21.75 56.16 22.62L56.12 22.82L52.44 38.92C51.84 41.55 49.57 43.45 46.91 43.61L46.54 43.62L27.65 43.62L28.35 46.48L47.77 46.48C50.21 46.51 52.23 48.5 52.23 50.94C52.23 53.4 50.23 55.39 47.77 55.39C45.31 55.39 43.32 53.4 43.32 50.94C43.32 50.44 43.4 49.96 43.55 49.51L31.38 49.51C31.54 49.96 31.62 50.44 31.62 50.94C31.62 53.4 29.63 55.39 27.17 55.39C24.7 55.39 22.71 53.4 22.71 50.94C22.71 49.13 23.79 47.57 25.34 46.87L19 20.93C18.83 20.24 18.26 19.73 17.57 19.63L17.34 19.62C16.5 19.62 15.83 18.94 15.83 18.11C15.83 17.27 16.5 16.6 17.34 16.6ZM27.17 49.51C26.37 49.51 25.73 50.15 25.73 50.94C25.73 51.73 26.37 52.37 27.17 52.37C27.96 52.37 28.6 51.73 28.6 50.94C28.6 50.15 27.96 49.51 27.17 49.51ZM47.77 49.51C46.98 49.51 46.34 50.15 46.34 50.94C46.34 51.73 46.98 52.37 47.77 52.37C48.56 52.37 49.2 51.73 49.2 50.94C49.2 50.15 48.56 49.51 47.77 49.51Z" fill="#FFFFFF" fill-opacity="1.000000" fill-rule="evenodd"/>
	</g>
</svg>
